<?xml version="1.0" encoding="UTF-8"?>
<svg version="1.1" xmlns="http://www.w3.org/2000/svg" width="512" height="512">
<path d="M0 0 C168.96 0 337.92 0 512 0 C512 168.96 512 337.92 512 512 C343.04 512 174.08 512 0 512 C0 343.04 0 174.08 0 0 Z " fill="#8B6F97" transform="translate(0,0)"/>
<path d="M0 0 C9.88248556 8.93424107 16.35061952 20.15274601 17.04296875 33.48046875 C17.56850938 38.1235947 18.06776301 39.84038021 21.484375 43.11328125 C24.49858393 45.29630305 27.6701309 47.2264263 30.83398438 49.18310547 C52.14088141 63.28394885 63.85437339 91.07215521 69.18774414 114.96386719 C75.37406837 145.74352412 67.42885001 177.29905333 50.60546875 203.35546875 C46.03539964 209.78005866 40.68474691 215.43447839 35.16796875 221.04296875 C34.6474292 221.5730957 34.12688965 222.10322266 33.59057617 222.64941406 C29.85061713 226.35546875 29.85061713 226.35546875 27.60546875 226.35546875 C29.29040115 221.10625627 31.31332144 216.02186935 33.39453125 210.921875 C34.5933994 207.96103396 35.69440996 205.05208432 36.59375 201.984375 C37.60546875 199.35546875 37.60546875 199.35546875 40.79296875 197.79296875 C41.41429687 197.56609375 42.035625 197.33921875 42.67578125 197.10546875 C50.35644973 194.12026966 54.02074454 188.52491717 57.60546875 181.35546875 C57.94835937 180.6903125 58.29125 180.02515625 58.64453125 179.33984375 C62.36414335 170.51011036 62.25555209 157.60250574 58.98046875 148.66796875 C56.8604428 144.26777101 53.96838244 140.87124215 50.60546875 137.35546875 C50.27546875 140.32546875 49.94546875 143.29546875 49.60546875 146.35546875 C-6.49453125 146.35546875 -62.59453125 146.35546875 -120.39453125 146.35546875 C-120.72453125 143.71546875 -121.05453125 141.07546875 -121.39453125 138.35546875 C-124.45385992 139.01152057 -124.45385992 139.01152057 -125.453125 141.140625 C-125.91912109 142.23697266 -125.91912109 142.23697266 -126.39453125 143.35546875 C-126.73613281 144.07605469 -127.07773438 144.79664063 -127.4296875 145.5390625 C-127.76871094 146.28285156 -128.10773438 147.02664062 -128.45703125 147.79296875 C-128.79863281 148.53417969 -129.14023438 149.27539062 -129.4921875 150.0390625 C-133.19349937 159.54069859 -132.17350937 170.197682 -128.66015625 179.5625 C-125.51910929 186.4941314 -121.64097653 191.98295705 -115.39453125 196.35546875 C-114.74097656 196.57332031 -114.08742187 196.79117188 -113.4140625 197.015625 C-110.92153829 197.87140723 -109.38029492 198.59171592 -107.39453125 200.35546875 C-105.73014816 204.03116439 -104.58647422 207.69080965 -103.49609375 211.56640625 C-102.34590505 215.52272907 -100.82974787 219.04444308 -98.99609375 222.71875 C-98.79757813 223.25886719 -98.5990625 223.79898438 -98.39453125 224.35546875 C-98.72453125 225.01546875 -99.05453125 225.67546875 -99.39453125 226.35546875 C-123.21063185 206.08644696 -137.79317828 180.17730947 -141.08203125 148.73046875 C-143.27642858 117.18600711 -135.78560818 86.90212862 -115.10546875 62.43359375 C-104.92311953 50.76978137 -104.92311953 50.76978137 -98.94921875 47.234375 C-92.21347036 43.48221553 -92.21347036 43.48221553 -88.30078125 37.1015625 C-88.02819704 34.71382964 -87.8245308 32.31730051 -87.6875 29.91796875 C-86.65059959 17.3092597 -77.9621123 6.84445204 -68.6953125 -1.1015625 C-48.01125727 -17.67397998 -20.56492941 -15.81689376 0 0 Z " fill="#10303F" transform="translate(291.39453125,65.64453125)"/>
<path d="M0 0 C0.66 0 1.32 0 2 0 C3.00541491 1.10475231 3.95363828 2.26173243 4.875 3.4375 C19.40923357 20.35928734 43.97494984 29.3854894 65 35 C66.26714844 35.33902344 67.53429687 35.67804688 68.83984375 36.02734375 C117.87365419 48.11554007 177.81292362 45.45503841 223 22 C223.63244629 21.67805664 224.26489258 21.35611328 224.91650391 21.02441406 C235.20641202 15.74034064 245.43454998 9.84817503 252 0 C252.66 0 253.32 0 254 0 C257.95500361 4.92741153 259.79942603 10.35764658 261.75 16.3125 C262.09144043 17.35229004 262.43288086 18.39208008 262.78466797 19.46337891 C269.2272705 39.6639601 273.72870907 60.39216647 277.4375 81.25 C277.5632843 81.95139099 277.6890686 82.65278198 277.81866455 83.37542725 C278.17806861 85.39994871 278.52681561 87.42598124 278.87109375 89.453125 C279.06630615 90.59942383 279.26151855 91.74572266 279.46264648 92.92675781 C280.20999212 98.59178037 280.56174808 104.3027251 281 110 C179.36 110 77.72 110 -27 110 C-21.20767907 78.72146697 -21.20767907 78.72146697 -17.72412109 63.22900391 C-17.05035055 60.22452338 -16.3845545 57.21835813 -15.72113037 54.21157837 C-15.11393942 51.46387314 -14.50248252 48.71712799 -13.89007568 45.97058105 C-13.45331555 44.00854733 -13.01980931 42.04579014 -12.58642578 40.08300781 C-10.92662507 32.68961311 -9.04786974 25.40452688 -6.90673828 18.13549805 C-5.77308041 14.21531279 -4.77835134 10.26804459 -3.80859375 6.3046875 C-2.90826677 3.73853814 -1.8223863 2.01250802 0 0 Z " fill="#DF0315" transform="translate(129,402)"/>
<path d="M0 0 C6.30973995 4.54888229 10.33752398 10.32073207 12 18 C12.9716946 31.75641925 11.85704138 44.15533293 2.7421875 55.27734375 C-1.59998108 59.57083331 -5.79001155 63 -12 63 C-12.185625 64.155 -12.37125 65.31 -12.5625 66.5 C-17.71774259 89.46426247 -33.61213335 113.07475557 -53 126 C-53.33 131.61 -53.66 137.22 -54 143 C-74.46 143 -94.92 143 -116 143 C-116.33 137.39 -116.66 131.78 -117 126 C-120.50360441 122.49639559 -122.95277499 120.50598525 -127 118 C-140.7582708 106.41674996 -154.54947174 83.84489294 -157.34375 65.77734375 C-157.8610844 63.79636609 -157.8610844 63.79636609 -160.00390625 62.83203125 C-160.84824219 62.49558594 -161.69257813 62.15914063 -162.5625 61.8125 C-171.99714309 57.36473969 -176.42159394 50.21179878 -180.08984375 40.69921875 C-183.37902306 30.94461401 -183.07644469 20.4955279 -179 11 C-176.52585829 6.09295228 -175.02854488 3.51427244 -170 1 C-170 3.97 -170 6.94 -170 10 C-113.9 10 -57.8 10 0 10 C0 6.7 0 3.4 0 0 Z " fill="#E2B591" transform="translate(341,202)"/>
<path d="M0 0 C1.52717536 -0.01292202 3.05434624 -0.02638302 4.58151245 -0.04034424 C7.77011514 -0.06411615 10.95828783 -0.07172566 14.14697266 -0.06933594 C17.35298126 -0.06901329 20.55667405 -0.09640861 23.76220703 -0.15136719 C45.31857914 -0.51527753 63.38520549 1.38998042 83.8671875 8.671875 C86.19712349 9.4650616 88.52785668 10.25591026 90.859375 11.04443359 C111.04694662 17.89987793 130.22169168 25.79899626 145.8671875 40.671875 C134.6819046 60.50033106 107.91923629 69.95023787 87.2421875 75.921875 C38.43394907 89.42425235 -15.51186362 88.29041436 -63.1328125 70.671875 C-64.21820313 70.27226562 -65.30359375 69.87265625 -66.421875 69.4609375 C-81.73630018 63.44022681 -95.86513553 54.7145998 -106.1328125 41.671875 C-90.87109975 22.03364169 -61.32229343 14.66380055 -38.63671875 7.3359375 C-37.988134 7.12585556 -37.33954926 6.91577362 -36.67131042 6.69932556 C-35.30862129 6.26491064 -33.94276388 5.84035193 -32.57446289 5.4239502 C-30.72609135 4.85461627 -28.88722789 4.25429357 -27.0534668 3.63952637 C-17.98018979 0.76207672 -9.43769628 0.01924023 0 0 Z " fill="#E3B591" transform="translate(236.1328125,360.328125)"/>
<path d="M0 0 C0 3.3 0 6.6 0 10 C28.05 10 56.1 10 85 10 C85 37.06 85 64.12 85 92 C83.02 92 81.04 92 79 92 C75.72435637 92.92414941 75.72435637 92.92414941 73 94 C76.73365967 98.51150543 78.76874068 98.66327776 85 101 C85 114.53 85 128.06 85 142 C74.77 142 64.54 142 54 142 C54.04125 139.36 54.0825 136.72 54.125 134 C53.99501623 129.41947574 53.82800532 126.08203413 50.98828125 122.37109375 C48.40662958 120.41409899 45.75327002 118.70478638 43 117 C29.2417292 105.41674996 15.45052826 82.84489294 12.65625 64.77734375 C12.1389156 62.79636609 12.1389156 62.79636609 9.99609375 61.83203125 C9.15175781 61.49558594 8.30742187 61.15914063 7.4375 60.8125 C-1.99714309 56.36473969 -6.42159394 49.21179878 -10.08984375 39.69921875 C-13.37605547 29.9534149 -13.08806533 19.4849579 -9 10 C-3.80672269 0 -3.80672269 0 0 0 Z " fill="#F0C8A4" transform="translate(171,203)"/>
<path d="M0 0 C0 27.39 0 54.78 0 83 C-27.85999527 83 -27.85999527 83 -36.4375 81.75 C-37.42572754 81.61505127 -38.41395508 81.48010254 -39.43212891 81.34106445 C-70.29486216 76.92172937 -105.99936788 66.40620837 -126 41 C-110.73828725 21.36176669 -81.18948093 13.99192555 -58.50390625 6.6640625 C-57.8553215 6.45398056 -57.20673676 6.24389862 -56.53849792 6.02745056 C-35.40037904 -0.7112208 -25.12692694 0 0 0 Z " fill="#F0C8A4" transform="translate(256,361)"/>
<path d="M0 0 C19.8 0 39.6 0 60 0 C60 4.62 60 9.24 60 14 C40.2 14 20.4 14 0 14 C0 9.38 0 4.76 0 0 Z " fill="#10303F" transform="translate(226,346)"/>
<path d="M0 0 C0.845625 -0.20625 1.69125 -0.4125 2.5625 -0.625 C6.05688689 -1.16259798 8.02061938 0.26780197 11 2 C9.96134782 5.34676814 8.95387047 6.02532602 5.8125 7.75 C2.0465684 9.15055308 -0.96527835 9.56627672 -5 9 C-7.89048802 7.62600041 -10.56529228 6.08689233 -13 4 C-13 3.34 -13 2.68 -13 2 C-8.13159697 -0.96853843 -5.52769241 -1.00503498 0 0 Z " fill="#4B291C" transform="translate(257,295)"/>
</svg>
