<?xml version="1.0" encoding="UTF-8"?>
<svg version="1.1" xmlns="http://www.w3.org/2000/svg" width="512" height="512">
<path d="M0 0 C168.96 0 337.92 0 512 0 C512 168.96 512 337.92 512 512 C343.04 512 174.08 512 0 512 C0 343.04 0 174.08 0 0 Z " fill="#866450" transform="translate(0,0)"/>
<path d="M0 0 C3.46029161 2.87615082 6.75789732 5.88108602 10 9 C10.69480469 9.66644531 11.38960937 10.33289063 12.10546875 11.01953125 C14.74192358 13.60162619 16.9426922 15.91403829 19 19 C19.66 19 20.32 19 21 19 C22.98 14.05 22.98 14.05 25 9 C25.33 9 25.66 9 26 9 C26 10.65 26 12.3 26 14 C26.680625 14.061875 27.36125 14.12375 28.0625 14.1875 C35.65802036 16.28838861 39.07143483 21.06513691 42.8359375 27.59765625 C46.62054241 35.40816638 46.19364799 46.19864463 44.12890625 54.50390625 C40.69384091 63.32245105 35.32032733 70.37759593 27 75 C24.625 75.75 24.625 75.75 23 76 C22.67 73.36 22.34 70.72 22 68 C21.87625 69.1859375 21.7525 70.371875 21.625 71.59375 C19.94901462 85.45662563 16.38900306 99.0789147 5.640625 108.8359375 C-0.21122709 112.98796589 -6.02325161 112.77911512 -13 112 C-18.0320074 110.57712842 -22.76355647 108.62796529 -27.5625 106.5625 C-28.8174603 106.03885568 -30.07331909 105.51735935 -31.33007812 104.99804688 C-33.61874134 104.05114187 -35.90326066 103.0941054 -38.18188477 102.12329102 C-51.56571614 96.78854198 -63.4975853 100.63281693 -76 106 C-94.33138326 113.73578316 -94.33138326 113.73578316 -104 112 C-112.67910279 108.06984024 -117.99397403 99.30276745 -121.7109375 90.875 C-124.38351666 83.59251356 -125.07808514 75.65836293 -126 68 C-126.33 70.64 -126.66 73.28 -127 76 C-132.24049741 73.6723349 -136.15468435 71.37938727 -140 67 C-140.680625 66.2575 -141.36125 65.515 -142.0625 64.75 C-148.49937328 55.61379276 -149.89690205 45.99345655 -149 35 C-147.32248022 27.78464386 -143.60023729 21.84501857 -138 17 C-135.66389121 15.65014726 -133.58286513 14.84338453 -131 14 C-129.515 16.475 -129.515 16.475 -128 19 C-124.26880935 17.42942905 -121.79097652 15.0882036 -118.875 12.3125 C-106.17038831 0.53331986 -90.52224275 -8.71371154 -74 -14 C-73.02417969 -14.31839844 -72.04835938 -14.63679687 -71.04296875 -14.96484375 C-46.37601633 -21.83612575 -20.11520746 -15.16125921 0 0 Z " fill="#E3B591" transform="translate(308,189)"/>
<path d="M0 0 C1.67352539 -0.01836914 1.67352539 -0.01836914 3.38085938 -0.03710938 C21.67305131 -0.06925734 38.40369739 5.84126992 51.875 18.5625 C69.77644199 37.89432355 75.21916117 63.11824426 74.26806641 88.75390625 C73.81048149 94.17101601 72.1138482 99.16902314 70.0625 104.1875 C66.0625 104.1875 66.0625 104.1875 64.0546875 102.31640625 C63.35601562 101.46949219 62.65734375 100.62257813 61.9375 99.75 C50.59685574 86.65469579 37.64575781 77.5005826 21.0625 72.1875 C19.59296875 71.70796875 19.59296875 71.70796875 18.09375 71.21875 C-4.96410482 64.80058423 -28.14840189 70.70171341 -48.48046875 82.13671875 C-59.35118255 88.62346356 -68.64511589 96.64641503 -77.9375 105.1875 C-78.9275 104.8575 -79.9175 104.5275 -80.9375 104.1875 C-84.16475955 97.70267799 -84.41134397 91.84459883 -84.3125 84.6875 C-84.30234863 83.62668213 -84.29219727 82.56586426 -84.28173828 81.47290039 C-83.82734415 58.25124672 -76.36235677 38.61577161 -60.34375 21.5 C-43.35481846 5.17297489 -22.83116598 0.01314402 0 0 Z " fill="#E34149" transform="translate(259.9375,103.8125)"/>
<path d="M0 0 C0 38.28 0 76.56 0 116 C-5.445 116.99 -5.445 116.99 -11 118 C-14.53011908 119.06295513 -14.53011908 119.06295513 -17.65625 120.34765625 C-18.7803125 120.78787109 -19.904375 121.22808594 -21.0625 121.68164062 C-22.196875 122.13732422 -23.33125 122.59300781 -24.5 123.0625 C-26.80198307 123.97030638 -29.10406178 124.87787027 -31.40625 125.78515625 C-32.40978516 126.18613525 -33.41332031 126.58711426 -34.44726562 127.00024414 C-40.38154565 129.32435247 -45.66370096 129.58138914 -52 129 C-60.67910279 125.06984024 -65.99397403 116.30276745 -69.7109375 107.875 C-72.38351666 100.59251356 -73.07808514 92.65836293 -74 85 C-74.33 87.64 -74.66 90.28 -75 93 C-80.24049741 90.6723349 -84.15468435 88.37938727 -88 84 C-88.680625 83.2575 -89.36125 82.515 -90.0625 81.75 C-96.49937328 72.61379276 -97.89690205 62.99345655 -97 52 C-95.32248022 44.78464386 -91.60023729 38.84501857 -86 34 C-83.66389121 32.65014726 -81.58286513 31.84338453 -79 31 C-77.515 33.475 -77.515 33.475 -76 36 C-72.26880935 34.42942905 -69.79097652 32.0882036 -66.875 29.3125 C-48.86578189 12.61511251 -24.85084638 0 0 0 Z " fill="#F0C8A4" transform="translate(256,172)"/>
<path d="M0 0 C99.99 0 199.98 0 303 0 C303.66 5.61 304.32 11.22 305 17 C203.36 17 101.72 17 -3 17 C-2.01 11.39 -1.02 5.78 0 0 Z " fill="#1B4E3B" transform="translate(105,495)"/>
<path d="M0 0 C1.8362893 3.23868747 2.5100145 6.22840017 3.1875 9.875 C5.70145823 21.03697454 10.2248644 31.46077136 20 38 C25.39204619 40.6960231 32.24748908 39.52213985 37.7890625 37.87109375 C42.60021683 36.11401298 47.32788973 34.1471148 52.03369141 32.12695312 C66.83644565 25.80595131 78.6906136 25.36638283 93.796875 31.265625 C96.53649038 32.37709729 99.24854968 33.54046337 101.953125 34.734375 C110.04592363 38.26472823 117.10034056 40.45792142 126 39 C129.51812347 37.62732776 129.51812347 37.62732776 132 35 C132.48597656 34.54882812 132.97195313 34.09765625 133.47265625 33.6328125 C142.33318596 24.52300958 145.08903888 12.11951655 147 0 C147.33 0 147.66 0 148 0 C150.44263202 13.35438979 148.49175522 24.45273394 144 37 C143.77006348 37.65097656 143.54012695 38.30195313 143.30322266 38.97265625 C137.02637319 56.27952498 125.59116706 64.10580597 109.5 71.6875 C102.78506471 74.76150577 95.96834222 77.54959394 89 80 C87.96359375 80.37125 87.96359375 80.37125 86.90625 80.75 C67.27106738 86.7403947 46.61846679 75.98461118 29.51171875 67.2109375 C12.68162001 57.84424977 6.17775032 45.33563334 0.9453125 27.3984375 C0.63335937 26.27695312 0.32140625 25.15546875 0 24 C-0.309375 22.99453125 -0.309375 22.99453125 -0.625 21.96875 C-1.1878381 19.01384996 -1.13146049 16.12912924 -1.125 13.125 C-1.12886719 11.33449219 -1.12886719 11.33449219 -1.1328125 9.5078125 C-1.00933396 6.24652649 -0.61663257 3.20061666 0 0 Z " fill="#11110E" transform="translate(182,261)"/>
<path d="M0 0 C97.68 0 195.36 0 296 0 C298 9 298 9 298 17 C198.67 17 99.34 17 -3 17 C-2 7 -2 7 0 0 Z " fill="#AEAEAE" transform="translate(109,478)"/>
<path d="M0 0 C0.14695312 0.72703125 0.29390625 1.4540625 0.4453125 2.203125 C3.32337027 15.10476328 7.92270288 25.26171673 19 33 C30.54532261 39.30157007 42.42791457 40.93431288 55.3828125 38.31640625 C66.84193015 34.38243566 76.37657933 26.82013192 82 16 C82.88081886 13.26206265 83.54396779 10.48949434 84.1875 7.6875 C84.36474609 6.94693359 84.54199219 6.20636719 84.72460938 5.44335938 C85.15730953 3.63069658 85.57970716 1.81557973 86 0 C94.71041764 1.35369805 102.84880641 4.19282786 111.125 7.125 C112.47634969 7.59826433 113.82791096 8.07092499 115.1796875 8.54296875 C118.45559005 9.68837308 121.72856591 10.84188553 125 12 C125 12.33 125 12.66 125 13 C115.76 13.33 106.52 13.66 97 14 C95.02 17.96 93.04 21.92 91 26 C90.01 27.485 90.01 27.485 89 29 C89.88425659 28.9969838 90.76851318 28.99396759 91.67956543 28.99085999 C100.03616361 28.96856222 108.3919069 28.97989438 116.74840546 29.02846622 C121.04410277 29.05226305 125.33902619 29.0633139 129.63476562 29.04467773 C133.7849878 29.02715111 137.93382367 29.04383473 142.08387756 29.08367729 C143.66257846 29.09293087 145.24140036 29.09011063 146.8200531 29.07469368 C160.7247597 28.9521509 160.7247597 28.9521509 165.84570312 33.28295898 C174 41.90826722 174 41.90826722 174 46 C173.45445843 46.00146656 172.90891685 46.00293312 172.34684372 46.00444412 C159.02354028 46.04162495 145.70049204 46.10103646 132.37739182 46.18390274 C125.93420177 46.2233163 119.49114714 46.25553497 113.04785156 46.27099609 C106.823116 46.28620272 100.5987529 46.32072003 94.37418365 46.36830902 C92.00612892 46.38308143 89.63802101 46.39103862 87.26992035 46.39188385 C71.43906659 46.08110399 71.43906659 46.08110399 56.32124329 50.09454346 C51.85851747 51.83533655 47.16511336 51.57723807 42.4375 51.5 C41.01147461 51.52320313 41.01147461 51.52320313 39.55664062 51.546875 C34.50542199 51.51940406 30.50632935 50.96771665 25.8367157 49.00091553 C20.07631982 46.83328049 15.03985935 46.42211333 8.92895508 46.45410156 C7.88371674 46.44376389 6.83847839 46.43342621 5.76156616 46.42277527 C2.34739335 46.3935565 -1.06618124 46.3918525 -4.48046875 46.390625 C-6.86372494 46.37562927 -9.24697079 46.35889922 -11.63020325 46.34051514 C-17.87228903 46.29698627 -24.11423465 46.27687449 -30.35644531 46.26177979 C-36.73836505 46.24215656 -43.12013457 46.20019242 -49.50195312 46.16015625 C-62.00125558 46.08501073 -74.50052417 46.03462445 -87 46 C-85.94718984 39.2982407 -81.84172974 35.31470952 -76.7269249 31.09975624 C-73.80881146 29.24141632 -71.11025112 29.35847501 -67.70947266 29.34057617 C-66.6547728 29.32485062 -66.6547728 29.32485062 -65.57876587 29.30880737 C-63.27340837 29.28019177 -60.9695648 29.28633212 -58.6640625 29.29296875 C-57.05836111 29.27984536 -55.4526762 29.26453916 -53.84701538 29.24714661 C-49.63510397 29.20735795 -45.42362502 29.19711019 -41.21154785 29.19311523 C-36.90782606 29.18377212 -32.60435712 29.14635127 -28.30078125 29.11132812 C-19.86718276 29.04681485 -11.4338337 29.01352357 -3 29 C-3.40992188 28.33613281 -3.81984375 27.67226563 -4.2421875 26.98828125 C-4.78101563 26.10527344 -5.31984375 25.22226562 -5.875 24.3125 C-6.40867187 23.44238281 -6.94234375 22.57226562 -7.4921875 21.67578125 C-9 19 -9 19 -11 14 C-24.86 13.505 -24.86 13.505 -39 13 C-36.31729768 10.31729768 -33.2509363 9.55961977 -29.7265625 8.3984375 C-29.00640961 8.1571109 -28.28625671 7.9157843 -27.54428101 7.66714478 C-26.02041252 7.15828129 -24.49552958 6.65244723 -22.96972656 6.14941406 C-20.63819748 5.37935885 -18.3111977 4.59664516 -15.984375 3.8125 C-14.50285999 3.31954298 -13.02109692 2.82733074 -11.5390625 2.3359375 C-10.84414703 2.10160004 -10.14923157 1.86726257 -9.43325806 1.62582397 C-6.07047304 0.52650872 -3.58444361 0 0 0 Z " fill="#1C4E3B" transform="translate(213,364)"/>
<path d="M0 0 C95.7 0 191.4 0 290 0 C292 11 292 11 292 16 C194.65 16 97.3 16 -3 16 C-2.01 10.72 -1.02 5.44 0 0 Z " fill="#1B4E3B" transform="translate(112,462)"/>
<path d="M0 0 C93.06 0 186.12 0 282 0 C285 11 285 11 285 16 C189.96 16 94.92 16 -3 16 C-1 4 -1 4 0 0 Z " fill="#AFAFAF" transform="translate(116,445)"/>
<path d="M0 0 C90.09 0 180.18 0 273 0 C277 13 277 13 277 16 C184.6 16 92.2 16 -3 16 C-1 5 -1 5 0 0 Z " fill="#1B4E3B" transform="translate(120,428)"/>
<path d="M0 0 C3.77113924 0.75422785 6.77914862 1.58245208 10.3125 2.9375 C26.83501908 8.97964461 40.68446658 7.58091274 56.77734375 0.8359375 C59 0 59 0 62 0 C62.495 12.375 62.495 12.375 63 25 C68.445 26.485 68.445 26.485 74 28 C74.69356243 38.63462397 70.77206252 46.94994124 64 55 C56.61120143 62.96038487 46.95117534 68.8519502 35.875 69.2734375 C20.2379793 69.7350529 9.89686945 66.15121491 -1.7109375 55.41796875 C-8.59846602 48.23326261 -12.18433022 37.76950151 -12 28 C-7.69214025 26.64851459 -4.58042408 26 0 26 C0 17.42 0 8.84 0 0 Z " fill="#E2B591" transform="translate(225,335)"/>
<path d="M0 0 C0.91392517 -0.00571014 1.82785034 -0.01142029 2.76947021 -0.01730347 C3.78031677 -0.01842133 4.79116333 -0.01953918 5.8326416 -0.02069092 C7.42051483 -0.02813828 7.42051483 -0.02813828 9.04046631 -0.03573608 C12.56299478 -0.05040878 16.08547814 -0.05717019 19.60803223 -0.06268311 C22.05126955 -0.06843287 24.49450685 -0.07419063 26.93774414 -0.07995605 C32.07263398 -0.09048228 37.2075081 -0.09631349 42.34240723 -0.09979248 C48.9117811 -0.10526324 55.48094623 -0.1292542 62.05025482 -0.15776443 C67.10327755 -0.17642621 72.15625053 -0.18159843 77.20930481 -0.18312836 C79.63012323 -0.18615029 82.05094087 -0.19416327 84.47172546 -0.20731354 C87.86823136 -0.22443822 91.26423461 -0.22247719 94.6607666 -0.21600342 C96.15274567 -0.22982559 96.15274567 -0.22982559 97.67486572 -0.243927 C103.19993672 -0.21107009 107.72835024 0.46225251 112.89542484 2.45881462 C115.39653931 3.37104466 117.67187964 3.52836056 120.32287598 3.53887939 C121.2864502 3.54274658 122.25002441 3.54661377 123.24279785 3.55059814 C124.2192627 3.53899658 125.19572754 3.52739502 126.20178223 3.51544189 C127.17437988 3.52704346 128.14697754 3.53864502 129.14904785 3.55059814 C130.11391113 3.54673096 131.07877441 3.54286377 132.07287598 3.53887939 C132.92679932 3.53549561 133.78072266 3.53211182 134.66052246 3.52862549 C137.46332595 3.17808214 139.59929323 2.54653661 142.25047302 1.63746643 C147.93591403 -0.08980803 153.18118426 -0.26372898 159.08898926 -0.20013428 C160.17309586 -0.20057236 161.25720245 -0.20101044 162.37416077 -0.20146179 C165.9236614 -0.19938761 169.47267758 -0.17612111 173.02209473 -0.15252686 C175.49644716 -0.14692604 177.97080295 -0.14265823 180.44515991 -0.1396637 C186.93230503 -0.12825327 193.41924609 -0.09881876 199.90631104 -0.06555176 C206.53602506 -0.0347688 213.1657653 -0.02114082 219.79553223 -0.00604248 C232.78520221 0.02605453 245.77473132 0.07662158 258.76428223 0.14044189 C259.60147605 2.43076501 260.43417512 4.72255146 261.26428223 7.01544189 C261.50275879 7.66641846 261.74123535 8.31739502 261.98693848 8.98809814 C263.76428223 13.91387939 263.76428223 13.91387939 263.76428223 16.14044189 C174.00428223 16.14044189 84.24428223 16.14044189 -8.23571777 16.14044189 C-5.01136286 0.01866734 -5.01136286 0.01866734 0 0 Z " fill="#AFAFAF" transform="translate(129.2357177734375,410.85955810546875)"/>
<path d="M0 0 C3.71356587 0.74271317 6.44928494 1.49831077 9.875 2.875 C17.34912406 5.62375127 17.34912406 5.62375127 31 8 C31 28.13 31 48.26 31 69 C16.90683039 69 8.45220805 64.81539786 -1.7109375 55.41796875 C-8.59846602 48.23326261 -12.18433022 37.76950151 -12 28 C-7.69214025 26.64851459 -4.58042408 26 0 26 C0 17.42 0 8.84 0 0 Z " fill="#EFC7A3" transform="translate(225,335)"/>
<path d="M0 0 C34.35615545 -1.64474322 34.35615545 -1.64474322 50 8 C51.07636719 8.59296875 52.15273438 9.1859375 53.26171875 9.796875 C59.71711165 13.4342233 59.71711165 13.4342233 61 16 C38.23 16 15.46 16 -8 16 C-6.46392719 12.15981797 -4.86686467 8.78151668 -2.875 5.1875 C-2.33617187 4.21167969 -1.79734375 3.23585938 -1.2421875 2.23046875 C-0.83226562 1.49441406 -0.42234375 0.75835937 0 0 Z " fill="#AFAFAE" transform="translate(310,377)"/>
<path d="M0 0 C0.7003688 0.00424484 1.40073761 0.00848969 2.12232971 0.01286316 C4.33326625 0.02949719 6.54325082 0.06711695 8.75390625 0.10546875 C10.2636586 0.12053549 11.77342541 0.13422039 13.28320312 0.14648438 C16.96124059 0.17934954 20.63873032 0.23102293 24.31640625 0.29296875 C25.46518957 2.39557216 26.61051817 4.49993414 27.75390625 6.60546875 C28.07939453 7.20037109 28.40488281 7.79527344 28.74023438 8.40820312 C30.15378009 11.01670501 31.37589258 13.47142774 32.31640625 16.29296875 C9.54640625 16.29296875 -13.22359375 16.29296875 -36.68359375 16.29296875 C-34.13866903 13.74804403 -32.55882383 12.52523956 -29.48046875 10.91796875 C-28.66449219 10.49 -27.84851563 10.06203125 -27.0078125 9.62109375 C-25.73357422 8.96367187 -25.73357422 8.96367187 -24.43359375 8.29296875 C-23.18255859 7.63554687 -23.18255859 7.63554687 -21.90625 6.96484375 C-19.50862283 5.71521703 -17.11535967 4.47501099 -14.68359375 3.29296875 C-13.58942139 2.75502686 -12.49524902 2.21708496 -11.36791992 1.6628418 C-7.30756754 0.15315807 -4.31751 -0.05201819 0 0 Z " fill="#AFAFAF" transform="translate(177.68359375,376.70703125)"/>
<path d="M0 0 C0.474375 0.495 0.94875 0.99 1.4375 1.5 C5.20358351 3.70453669 8.73459379 3.24608113 13 3 C12.51355405 5.003991 12.02295572 6.93739349 11.3125 8.875 C10.86319174 11.93029617 11.90459645 14.16483788 13 17 C11.783125 17.0825 10.56625 17.165 9.3125 17.25 C5.21534129 17.73758372 2.99860092 19.09510536 0 22 C-0.061875 20.39125 -0.061875 20.39125 -0.125 18.75 C-0.64608309 14.76438296 -0.64608309 14.76438296 -4.0625 12.5625 C-5.031875 12.046875 -6.00125 11.53125 -7 11 C-5.36587557 9.29159719 -4.13093906 8.06546953 -2 7 C-1.26924352 4.6859378 -0.59861742 2.35171131 0 0 Z " fill="#EAD45D" transform="translate(190,153)"/>
<path d="M0 0 C0.66 0 1.32 0 2 0 C2.061875 0.928125 2.12375 1.85625 2.1875 2.8125 C2.68827104 6.1890663 2.68827104 6.1890663 5.5625 7.875 C6.366875 8.24625 7.17125 8.6175 8 9 C5 11 5 11 3 12 C2.27306096 13.97888961 1.60183749 15.97954558 1 18 C0.484375 17.505 -0.03125 17.01 -0.5625 16.5 C-3.80680017 14.50350759 -6.26217334 14.78435615 -10 15 C-9.62875 13.948125 -9.2575 12.89625 -8.875 11.8125 C-7.95723754 7.81367786 -8.08615391 6.50871784 -10 3 C-8.3603125 3.0928125 -8.3603125 3.0928125 -6.6875 3.1875 C-3.08247389 3.37243237 -3.08247389 3.37243237 -1.1875 1.5 C-0.795625 1.005 -0.40375 0.51 0 0 Z " fill="#EAD25D" transform="translate(323,166)"/>
<path d="M0 0 C0.7734375 0.495 0.7734375 0.495 1.5625 1 C4.78026512 2.32010877 7.5570528 2.13242105 11 2 C10.773125 2.886875 10.54625 3.77375 10.3125 4.6875 C9.94548054 8.57790624 10.73118159 9.91440696 13 13 C11.906875 13.103125 10.81375 13.20625 9.6875 13.3125 C6.14440371 13.97307727 5.06756277 14.2027092 3 17 C2.6596875 16.1028125 2.6596875 16.1028125 2.3125 15.1875 C0.66188867 12.43648112 -1.1972081 11.47515363 -4 10 C-3.34 9.01 -2.68 8.02 -2 7 C-1.34 7 -0.68 7 0 7 C0 4.69 0 2.38 0 0 Z " fill="#EAD45D" transform="translate(229,117)"/>
<path d="M0 0 C0.53625 0.639375 1.0725 1.27875 1.625 1.9375 C4.44367193 4.38529404 6.33860732 4.66714612 10 5 C9.814375 6.093125 9.62875 7.18625 9.4375 8.3125 C8.7421932 11.93624133 8.7421932 11.93624133 10 15 C8.9275 14.938125 7.855 14.87625 6.75 14.8125 C2.89133813 15.00543309 1.71182212 15.39665076 -1 18 C-1.0825 17.05125 -1.165 16.1025 -1.25 15.125 C-1.65074923 11.89538209 -1.65074923 11.89538209 -4.0625 10.625 C-4.701875 10.41875 -5.34125 10.2125 -6 10 C-6 9.34 -6 8.68 -6 8 C-5.38125 7.79375 -4.7625 7.5875 -4.125 7.375 C-1.15346355 5.45224112 -0.86975341 3.33405473 0 0 Z " fill="#EAD55E" transform="translate(292,141)"/>
<path d="M0 0 C0.66 0.33 1.32 0.66 2 1 C2.33 1.99 2.66 2.98 3 4 C5.50447516 5.21869929 5.50447516 5.21869929 8 6 C7.01 7.485 7.01 7.485 6 9 C5.34 9 4.68 9 4 9 C4 10.98 4 12.96 4 15 C1.03 14.67 -1.94 14.34 -5 14 C-5.309375 12.906875 -5.61875 11.81375 -5.9375 10.6875 C-6.58337897 8.44592006 -7.2623117 6.2130649 -8 4 C-7.05125 3.896875 -6.1025 3.79375 -5.125 3.6875 C-1.70892499 3.31460705 -1.70892499 3.31460705 0 0 Z " fill="#EACD5C" transform="translate(273,116)"/>
<path d="M0 0 C2.64 0.33 5.28 0.66 8 1 C8.66 3.64 9.32 6.28 10 9 C8.35 9 6.7 9 5 9 C4.67 10.32 4.34 11.64 4 13 C3.34 13 2.68 13 2 13 C2 11.68 2 10.36 2 9 C0.35 8.67 -1.3 8.34 -3 8 C-2.34 7.01 -1.68 6.02 -1 5 C-0.61500109 3.34450469 -0.27206865 1.6777567 0 0 Z " fill="#EAD25D" transform="translate(206,129)"/>
<path d="M0 0 C0.2475 0.639375 0.495 1.27875 0.75 1.9375 C1.81562433 4.18741541 1.81562433 4.18741541 4.125 4.75 C4.74375 4.8325 5.3625 4.915 6 5 C5.34 5.66 4.68 6.32 4 7 C3.35232207 9.57061311 3.35232207 9.57061311 3 12 C-2.75 11.125 -2.75 11.125 -5 10 C-5 8.02 -5 6.04 -5 4 C-4.01 3.67 -3.02 3.34 -2 3 C-1.34 2.01 -0.68 1.02 0 0 Z " fill="#EACA5C" transform="translate(258,141)"/>
<path d="M0 0 C0.33 0.66 0.66 1.32 1 2 C1.66 2.33 2.32 2.66 3 3 C2.34 3.66 1.68 4.32 1 5 C0.01 5 -0.98 5 -2 5 C-2.33 3.68 -2.66 2.36 -3 1 C-2.01 0.67 -1.02 0.34 0 0 Z " fill="#EAC55B" transform="translate(308,132)"/>
</svg>
