<?xml version="1.0" encoding="UTF-8"?>
<svg version="1.1" xmlns="http://www.w3.org/2000/svg" width="512" height="512">
<path d="M0 0 C168.96 0 337.92 0 512 0 C512 168.96 512 337.92 512 512 C343.04 512 174.08 512 0 512 C0 343.04 0 174.08 0 0 Z " fill="#107C79" transform="translate(0,0)"/>
<path d="M0 0 C0.21914062 0.7734375 0.43828125 1.546875 0.6640625 2.34375 C3.91745602 13.02969294 8.4232777 20.06094741 18 26 C26.58485658 30.54075059 34.23184935 30.93981134 43.4375 28.375 C51.24037331 25.83682397 57.45927518 21.97325597 62 15 C64.43390964 10.15020967 66.40359759 5.18830783 68 0 C74.75424577 0.69000209 81.07351897 2.61978442 87.5625 4.5625 C88.75399658 4.91892578 89.94549316 5.27535156 91.1730957 5.64257812 C108.10461921 10.7797037 124.44041403 16.52168464 140 25 C141.08796875 25.57492187 142.1759375 26.14984375 143.296875 26.7421875 C154.38529359 32.84926068 163.3848942 39.77788498 167 52.25 C168.07266451 55.91493706 169.18016978 59.54966581 170.421875 63.16015625 C176.14187726 80.23056399 179.55977836 98.07404873 182.8125 115.75 C183.03262756 116.93763443 183.03262756 116.93763443 183.25720215 118.14926147 C183.6844328 120.46818252 184.10367713 122.7883889 184.51953125 125.109375 C184.64010391 125.76917862 184.76067657 126.42898224 184.88490295 127.10877991 C186.22075446 134.71759389 187.03797203 142.30377625 188 150 C86.36 150 -15.28 150 -120 150 C-109.64694656 98.23473282 -109.64694656 98.23473282 -105.125 80 C-104.43173089 77.16247885 -103.74105692 74.32433341 -103.05039978 71.48617554 C-102.61547106 69.70357516 -102.17837385 67.92150203 -101.73878479 66.14004517 C-100.82229679 62.42197171 -99.92164547 58.70471972 -99.10913086 54.96240234 C-98.85784424 53.80691895 -98.60655762 52.65143555 -98.34765625 51.4609375 C-98.14664307 50.49462402 -97.94562988 49.52831055 -97.73852539 48.53271484 C-96.47579379 44.20227597 -94.09501006 41.2022275 -91 38 C-90.24009766 37.1646875 -90.24009766 37.1646875 -89.46484375 36.3125 C-74.56958726 21.65475329 -50.63556284 13.73074119 -31 8 C-30.07960938 7.690625 -29.15921875 7.38125 -28.2109375 7.0625 C-23.63287236 5.54761713 -19.00757257 4.21230341 -14.375 2.875 C-13.43398437 2.59785156 -12.49296875 2.32070313 -11.5234375 2.03515625 C-10.6159375 1.77347656 -9.7084375 1.51179688 -8.7734375 1.2421875 C-7.95278809 1.0035498 -7.13213867 0.76491211 -6.28662109 0.51904297 C-4 0 -4 0 0 0 Z " fill="#231F20" transform="translate(222,362)"/>
<path d="M0 0 C14.20424053 2.76515265 30.42372716 4.05313836 44.74267578 1.39892578 C47.5 1 47.5 1 49.73828125 2.37890625 C65.12232135 18.5741575 78.04672384 43.11570197 77.5 66 C79.0778125 66.37125 79.0778125 66.37125 80.6875 66.75 C87.76567936 68.85355531 90.64428757 73.4398264 94.265625 79.5625 C98.18300252 87.29808092 97.68774093 98.2224053 95.62890625 106.50390625 C91.89420861 116.091671 85.88015659 123.5147757 76.5 128 C75.84 128 75.18 128 74.5 128 C74.43683594 128.57363281 74.37367188 129.14726562 74.30859375 129.73828125 C71.48984676 149.29148407 61.58974041 172.56388952 45.5 185 C44.25019504 185.61865345 42.97738108 186.19260781 41.6875 186.72265625 C35.68511887 189.22022045 35.68511887 189.22022045 31.5 194 C29.69494237 203.45397139 30.6598273 213.47281088 31.5 223 C32.16 223.33 32.82 223.66 33.5 224 C31.99454674 234.76286736 28.37982084 242.22770023 19.97265625 249.2734375 C12.7370473 254.32579004 4.27053576 256.5751171 -4.5 256 C-14.04617045 254.13192684 -22.13262002 249.57634897 -28.21875 241.91796875 C-31.95664549 236.32252154 -33.93198122 230.67422068 -34.5 224 C-33.51 224 -32.52 224 -31.5 224 C-31.5 214.1 -31.5 204.2 -31.5 194 C-33.48 193.34 -35.46 192.68 -37.5 192 C-57.881576 179.01579803 -67.70183637 159.4755614 -74.5 137 C-74.77805407 135.27512224 -75.03472553 133.54633225 -75.25 131.8125 C-75.78194949 128.92002464 -76.22181494 128.20761606 -78.625 126.4140625 C-80.38916422 125.42172013 -82.16842339 124.4557909 -83.9609375 123.515625 C-90.55021862 119.58233104 -94.03513604 112.04066271 -96.5 105 C-98.84990887 95.44370393 -98.51411622 85.59143891 -93.5 77 C-90.22653529 72.45438313 -86.71064579 68.31584257 -81.5 66 C-80.51 66 -79.52 66 -78.5 66 C-78.47421875 65.46375 -78.4484375 64.9275 -78.421875 64.375 C-77.80938759 55.91153757 -76.33301296 45.66602591 -72.5 38 C-71.84 38 -71.18 38 -70.5 38 C-69.51 39.98 -68.52 41.96 -67.5 44 C-66.96375 42.9275 -66.4275 41.855 -65.875 40.75 C-65.50632813 40.02039063 -65.13765625 39.29078125 -64.7578125 38.5390625 C-63.8736466 36.75425556 -63.01656703 34.9558992 -62.1796875 33.1484375 C-58.76721171 25.93189033 -54.80014051 19.96395459 -49.5 14 C-48.93410156 13.35160156 -48.36820313 12.70320312 -47.78515625 12.03515625 C-34.20017 -2.57269955 -18.4223954 -3.63236257 0 0 Z " fill="#E2B591" transform="translate(256.5,137)"/>
<path d="M0 0 C0 26.4 0 52.8 0 80 C-7.66232054 78.90538278 -7.66232054 78.90538278 -11.26464844 77.46020508 C-16.45909913 75.65545237 -21.30784482 75.58347538 -26.765625 75.63671875 C-27.76205017 75.63622025 -28.75847534 75.63572174 -29.78509521 75.63520813 C-31.87595633 75.63753431 -33.96682101 75.64717601 -36.05761719 75.66381836 C-39.25481143 75.68753569 -42.45117682 75.68435244 -45.6484375 75.67773438 C-47.68750496 75.68330806 -49.72656893 75.69041598 -51.765625 75.69921875 C-52.71777893 75.69830734 -53.66993286 75.69739594 -54.65093994 75.69645691 C-60.47880953 75.75876717 -64.4720629 76.14931438 -69.28369141 79.671875 C-71.68531466 82.92961033 -71.48645348 85.23148366 -71.4609375 89.25 C-71.46002106 89.94512695 -71.45910461 90.64025391 -71.4581604 91.35644531 C-71.45213343 92.82233532 -71.43641423 94.28821353 -71.41162109 95.75390625 C-71.37511982 97.99265116 -71.37060188 100.22973857 -71.37109375 102.46875 C-71.87068217 110.70374788 -71.87068217 110.70374788 -69 118 C-63.93282979 120.47974181 -58.771902 120.30644696 -53.25390625 120.30078125 C-52.32456772 120.30506638 -51.39522919 120.3093515 -50.43772888 120.31376648 C-48.47859509 120.31949154 -46.51944006 120.32002353 -44.56030273 120.31567383 C-41.57563765 120.31251391 -38.59196462 120.33599579 -35.60742188 120.36132812 C-33.69791791 120.36360143 -31.7884113 120.36430447 -29.87890625 120.36328125 C-28.99328506 120.372491 -28.10766388 120.38170074 -27.19520569 120.39118958 C-21.71432776 120.35059583 -17.83228087 119.65663362 -13 117 C-9.17062139 111.38357804 -9.60322768 105.01410272 -9.50390625 98.42578125 C-9 95 -9 95 -7.27734375 92.54296875 C-5 91 -5 91 0 91 C0 145.12 0 199.24 0 255 C-10.36181513 255 -17.37700814 252.74088296 -25 245.625 C-30.74756376 239.23415659 -32.69737815 232.36420348 -34 224 C-33.01 224 -32.02 224 -31 224 C-31 214.1 -31 204.2 -31 194 C-32.98 193.34 -34.96 192.68 -37 192 C-57.381576 179.01579803 -67.20183637 159.4755614 -74 137 C-74.27805407 135.27512224 -74.53472553 133.54633225 -74.75 131.8125 C-75.28194949 128.92002464 -75.72181494 128.20761606 -78.125 126.4140625 C-79.88916422 125.42172013 -81.66842339 124.4557909 -83.4609375 123.515625 C-90.05021862 119.58233104 -93.53513604 112.04066271 -96 105 C-98.34990887 95.44370393 -98.01411622 85.59143891 -93 77 C-89.72653529 72.45438313 -86.21064579 68.31584257 -81 66 C-80.01 66 -79.02 66 -78 66 C-77.97421875 65.46375 -77.9484375 64.9275 -77.921875 64.375 C-77.30938759 55.91153757 -75.83301296 45.66602591 -72 38 C-71.34 38 -70.68 38 -70 38 C-69.01 39.98 -68.02 41.96 -67 44 C-66.46375 42.9275 -65.9275 41.855 -65.375 40.75 C-65.00632813 40.02039063 -64.63765625 39.29078125 -64.2578125 38.5390625 C-63.3736466 36.75425556 -62.51656703 34.9558992 -61.6796875 33.1484375 C-58.26721171 25.93189033 -54.30014051 19.96395459 -49 14 C-48.43410156 13.35160156 -47.86820313 12.70320312 -47.28515625 12.03515625 C-33.86373314 -2.39682107 -18.47293105 -3.69458621 0 0 Z " fill="#EFC8A4" transform="translate(256,137)"/>
<path d="M0 0 C1.43859375 -0.02126953 1.43859375 -0.02126953 2.90625 -0.04296875 C5.5 0.1875 5.5 0.1875 8.5 2.1875 C7.90832031 2.56261719 7.31664062 2.93773437 6.70703125 3.32421875 C-1.01941062 8.12639208 -1.01941062 8.12639208 -6.5 15.1875 C-7.03095543 22.48813722 -7.11091779 28.71793896 -3.5 35.1875 C-2.1953199 33.23047985 -0.92257633 31.25167543 0.3125 29.25 C2.46181477 26.24095933 4.48936554 24.30308097 7.5 22.1875 C7.83 22.1875 8.16 22.1875 8.5 22.1875 C8.45359375 23.34507813 8.4071875 24.50265625 8.359375 25.6953125 C8.32183752 27.23434906 8.28543949 28.7734137 8.25 30.3125 C8.21648437 31.07304688 8.18296875 31.83359375 8.1484375 32.6171875 C8.05612738 37.97117446 8.92298168 40.95426609 12.5 45.1875 C13.985 46.1775 13.985 46.1775 15.5 47.1875 C16.10328125 46.02992187 16.7065625 44.87234375 17.328125 43.6796875 C18.13524231 42.14053356 18.94254376 40.60147616 19.75 39.0625 C20.14574219 38.30195312 20.54148437 37.54140625 20.94921875 36.7578125 C23.24697907 32.38830107 25.60752164 28.19345454 28.5 24.1875 C28.83 24.1875 29.16 24.1875 29.5 24.1875 C29.52187378 25.09290527 29.52187378 25.09290527 29.54418945 26.01660156 C30.04656913 44.64192884 31.43349789 64.34127868 45.5 78.1875 C45.5 79.1775 45.5 80.1675 45.5 81.1875 C29.78218688 85.86634564 10.15633019 82.169799 -5.5859375 79.09765625 C-17.96322762 76.7065353 -28.13000238 78.03472022 -39 84.7265625 C-52.67858087 94.74802279 -60.51903839 108.64251222 -66.5 124.1875 C-71.28325136 119.83299946 -72.30534046 114.7102876 -72.79296875 108.390625 C-73.13628708 97.53010601 -71.7616699 89.21775949 -65.5 80.1875 C-66.45519531 79.919375 -67.41039062 79.65125 -68.39453125 79.375 C-79.8334493 75.98415135 -89.99200431 71.30384482 -96.28515625 60.578125 C-101.32483775 50.66080964 -102.26695666 42.15120826 -101.5 31.1875 C-101.005 29.7025 -101.005 29.7025 -100.5 28.1875 C-99.84 28.1875 -99.18 28.1875 -98.5 28.1875 C-98.29246094 28.88875 -98.08492187 29.59 -97.87109375 30.3125 C-94.85425213 39.60285745 -90.88603309 45.46963352 -82.375 50.4375 C-76.34157711 53.5087556 -70.01895782 55.42561951 -63.5 57.1875 C-64.55109514 55.43062628 -65.61643123 53.68226874 -66.6875 51.9375 C-67.27917969 50.96296875 -67.87085938 49.9884375 -68.48046875 48.984375 C-70.54736679 46.12190112 -72.73593447 44.34528518 -75.5 42.1875 C-75.5 41.5275 -75.5 40.8675 -75.5 40.1875 C-70.5732023 37.72410115 -64.31248113 38.60437282 -59.24609375 40.234375 C-54.90568025 42.04509965 -50.69513135 44.0651404 -46.5 46.1875 C-46.82226562 45.37410156 -47.14453125 44.56070313 -47.4765625 43.72265625 C-48.677466 39.57449723 -48.88231534 35.91819286 -48.875 31.625 C-48.87693359 30.44768311 -48.87693359 30.44768311 -48.87890625 29.24658203 C-48.74986973 22.04253195 -47.15828286 15.90441114 -44.5 9.1875 C-44.17 9.1875 -43.84 9.1875 -43.5 9.1875 C-43.41363281 10.16589844 -43.32726562 11.14429687 -43.23828125 12.15234375 C-42.159709 22.21571972 -40.56313819 29.86280223 -32.6875 36.75 C-31.63629795 37.57706515 -30.57782325 38.39543969 -29.5 39.1875 C-29.48582031 38.38828125 -29.47164063 37.5890625 -29.45703125 36.765625 C-28.97275314 25.61413984 -26.23275247 16.09949931 -18.40234375 7.875 C-12.82640744 2.92878956 -7.52618847 0.05057922 0 0 Z " fill="#262522" transform="translate(256.5,57.8125)"/>
<path d="M0 0 C1.33740486 -0.01441132 1.33740486 -0.01441132 2.701828 -0.02911377 C4.13780083 -0.03548859 4.13780083 -0.03548859 5.6027832 -0.04199219 C7.09380302 -0.0505423 7.09380302 -0.0505423 8.61494446 -0.05926514 C10.71887145 -0.06870612 12.82281317 -0.07524554 14.92675781 -0.07910156 C18.12437223 -0.08877884 21.32133594 -0.11979949 24.51879883 -0.15136719 C26.56762316 -0.15790063 28.61645206 -0.16314976 30.6652832 -0.16699219 C31.61247726 -0.17933899 32.55967133 -0.19168579 33.53556824 -0.20440674 C40.42921773 -0.18160605 46.28210148 1.06915133 52.46606445 4.16113281 C58.6466051 4.73916899 63.02099859 4.32686878 68.46606445 1.16113281 C71.73382197 0.35251417 74.80151117 0.02911161 78.16113281 0 C79.0623436 -0.00960754 79.96355438 -0.01921509 80.89207458 -0.02911377 C81.85363968 -0.03336365 82.81520477 -0.03761353 83.8059082 -0.04199219 C85.30547813 -0.0505423 85.30547813 -0.0505423 86.83534241 -0.05926514 C88.94588163 -0.06869348 91.05643543 -0.07524049 93.16699219 -0.07910156 C96.38868884 -0.0888223 99.60975132 -0.11987264 102.83129883 -0.15136719 C104.88533151 -0.15789641 106.93936874 -0.1631472 108.9934082 -0.16699219 C109.95294907 -0.17933899 110.91248993 -0.19168579 111.90110779 -0.20440674 C118.45591445 -0.18265483 122.46128731 0.93083126 127.80566406 4.89770508 C130.14876129 8.09177277 129.99924761 10.44211625 130.0324707 14.37597656 C130.03866928 15.06873184 130.04486786 15.76148712 130.05125427 16.47523499 C130.05834103 17.93684488 130.05519819 19.39853568 130.04248047 20.86010742 C130.02862481 23.08892461 130.0626757 25.3135303 130.10083008 27.54199219 C130.10178151 28.96582133 130.09992116 30.3896557 130.0949707 31.81347656 C130.09605835 33.74694946 130.09605835 33.74694946 130.09716797 35.71948242 C129.29971651 40.06829219 127.91489493 41.46771129 124.46606445 44.16113281 C119.8985511 46.83098316 114.96424727 46.48424048 109.81762695 46.49707031 C108.88687347 46.50372711 107.95612 46.51038391 106.99716187 46.51724243 C105.0320635 46.52734751 103.06693096 46.53206012 101.10180664 46.53173828 C98.10806255 46.536108 95.11579763 46.57244067 92.12231445 46.61035156 C90.20825697 46.616221 88.29419252 46.62018954 86.38012695 46.62207031 C85.04698959 46.64362686 85.04698959 46.64362686 83.68692017 46.6656189 C77.77615608 46.62253742 74.29966495 45.62315291 69.46606445 42.16113281 C65.68285321 36.48631594 66.06978422 30.20787763 65.9699707 23.58691406 C65.73507251 20.12931323 65.73507251 20.12931323 63.6809082 17.73535156 C61.34032616 16.07176327 60.29547497 15.61692327 57.46606445 15.66113281 C56.47606445 15.64566406 56.47606445 15.64566406 55.46606445 15.62988281 C52.44769138 16.43163816 51.31063177 17.65462011 49.46606445 20.16113281 C48.87657654 23.65083559 48.87657654 23.65083559 48.90356445 27.47363281 C48.66885858 34.00771867 48.46220409 39.26164284 43.52856445 44.03613281 C40.13467788 45.88734367 36.99001283 46.28677701 33.15991211 46.32226562 C32.31868805 46.33187317 31.47746399 46.34148071 30.61074829 46.35137939 C29.25909073 46.35775421 29.25909073 46.35775421 27.88012695 46.36425781 C26.4783168 46.37280792 26.4783168 46.37280792 25.04818726 46.38153076 C23.07290779 46.39096678 21.09761269 46.39750918 19.12231445 46.40136719 C16.1090131 46.41107499 13.09639341 46.44211254 10.08325195 46.47363281 C8.16138099 46.48016318 6.23950517 46.48541352 4.31762695 46.48925781 C3.42057037 46.50160461 2.52351379 46.51395142 1.59927368 46.52667236 C-4.46038805 46.5052151 -8.79554758 45.74394291 -13.37744141 41.42236328 C-15.8271833 36.63251541 -15.09159512 30.80273822 -15.08984375 25.51708984 C-15.09639748 23.29901636 -15.15086613 21.08544396 -15.20776367 18.86816406 C-15.35054138 7.01610471 -15.35054138 7.01610471 -11.7487793 3.21582031 C-7.67722813 0.61358955 -4.76670014 0.04166519 0 0 Z " fill="#262122" transform="translate(198.533935546875,211.8388671875)"/>
</svg>
