<?xml version="1.0" encoding="UTF-8"?>
<svg version="1.1" xmlns="http://www.w3.org/2000/svg" width="512" height="512">
<path d="M0 0 C168.96 0 337.92 0 512 0 C512 168.96 512 337.92 512 512 C343.04 512 174.08 512 0 512 C0 343.04 0 174.08 0 0 Z " fill="#F1A78E" transform="translate(0,0)"/>
<path d="M0 0 C0.20753906 1.03898437 0.41507812 2.07796875 0.62890625 3.1484375 C3.3496641 15.8224823 8.1200081 25.31539311 19 33 C29.24291885 39.14248403 39.09986313 41.21792446 51 40 C63.29629181 36.90520296 73.23336871 29.84609086 80.1484375 19.23828125 C83.48191553 13.26057816 84.66119383 6.65346095 86 0 C113.79854856 5.55970971 147.336836 15.71116868 168 36 C168.5878125 36.57492187 169.175625 37.14984375 169.78125 37.7421875 C175.39030562 44.18115441 177.51624655 52.99119779 180 61 C180.20979492 61.66692871 180.41958984 62.33385742 180.63574219 63.02099609 C187.24520955 84.37670666 191.50675096 106.62079512 194.9375 128.6875 C195.04513672 129.37644348 195.15277344 130.06538696 195.26367188 130.77520752 C196.16137167 136.57593035 197 142.12083816 197 148 C95.36 148 -6.28 148 -111 148 C-109.87218693 137.84968235 -109.87218693 137.84968235 -108.94140625 133.2890625 C-108.6175293 131.70182373 -108.6175293 131.70182373 -108.28710938 130.08251953 C-108.04798828 128.94153809 -107.80886719 127.80055664 -107.5625 126.625 C-107.30662109 125.39765137 -107.05074219 124.17030273 -106.78710938 122.90576172 C-103.01330668 104.97873751 -98.7974065 87.14826724 -94.55200195 69.32818604 C-94.04920255 67.20752224 -93.55299265 65.08549026 -93.06054688 62.96240234 C-92.30960539 59.74072134 -91.53557655 56.525877 -90.75 53.3125 C-90.45416016 52.01626709 -90.45416016 52.01626709 -90.15234375 50.69384766 C-87.24305428 39.19511563 -78.51761388 31.52546698 -68.63476562 25.57617188 C-49.78013984 14.79205706 -22.29192516 0 0 0 Z " fill="#FEFEFE" transform="translate(213,364)"/>
<path d="M0 0 C3.47578423 1.63603763 6.06083289 3.37968336 8.6953125 6.19140625 C9.39785156 5.70414062 10.10039062 5.216875 10.82421875 4.71484375 C15.60357641 2.17885805 20.41291268 2.6602954 25.6953125 3.19140625 C30.03957265 4.77113721 33.19070326 7.20218072 36.6953125 10.19140625 C36.8809375 9.61390625 37.0665625 9.03640625 37.2578125 8.44140625 C39.35216358 5.16329152 42.1678053 3.60384308 45.6953125 2.19140625 C51.17346735 1.29498091 54.48336867 2.64378424 58.89453125 5.71875 C61.69290145 8.00722194 63.19554825 9.87942686 64.6953125 13.19140625 C64.99787423 16.55488411 64.93476441 19.82577658 64.6953125 23.19140625 C65.6853125 22.69640625 65.6853125 22.69640625 66.6953125 22.19140625 C73.13102245 21.37692844 78.48905869 22.2075852 83.6953125 26.19140625 C87.00569698 29.27592228 89.45884475 32.48128019 89.86376953 37.12207031 C89.89506427 39.99719154 89.82537749 42.83028565 89.5625 45.69433594 C89.3496476 47.95808767 89.3496476 47.95808767 89.6953125 51.19140625 C92.08933493 53.10055391 92.08933493 53.10055391 94.6953125 54.19140625 C94.6953125 54.85140625 94.6953125 55.51140625 94.6953125 56.19140625 C95.7265625 56.41828125 96.7578125 56.64515625 97.8203125 56.87890625 C103.01086266 58.38143393 106.49551009 61.2917191 109.3828125 65.86328125 C110.94372013 69.82129702 110.75757296 73.05165553 110.4453125 77.19140625 C110.13343956 82.51758446 110.13343956 82.51758446 112.13671875 87.3203125 C113.9805116 88.77414647 113.9805116 88.77414647 115.9375 89.9921875 C119.03176767 92.10316566 119.70278684 94.68837452 120.6953125 98.19140625 C121.518352 104.47737043 120.84502335 109.0535191 117.5703125 114.5 C116.46557314 116.31811198 116.46557314 116.31811198 116.6953125 119.19140625 C118.00276999 120.87844818 119.33703279 122.5450066 120.6953125 124.19140625 C122.30592189 129.02323443 122.74993583 133.76047911 120.68359375 138.5234375 C117.4296875 143.94661458 117.4296875 143.94661458 113.6953125 145.19140625 C113.6953125 145.85140625 113.6953125 146.51140625 113.6953125 147.19140625 C114.2728125 147.37703125 114.8503125 147.56265625 115.4453125 147.75390625 C118.74921985 149.86473594 120.35840429 152.59676019 121.6953125 156.19140625 C122.51589673 160.84411881 122.21593532 164.79495378 120.0078125 169.00390625 C116.67682895 173.59526195 114.53328097 175.82983868 108.8828125 176.94140625 C107.8309375 177.02390625 106.7790625 177.10640625 105.6953125 177.19140625 C105.7778125 178.34640625 105.8603125 179.50140625 105.9453125 180.69140625 C105.91928379 185.60215573 104.53627814 189.20232176 101.6953125 193.19140625 C100.07743311 194.74784719 98.38156313 196.11653396 96.6171875 197.50390625 C92.76605083 200.8853921 89.83123551 205.15860926 86.6953125 209.19140625 C79.93530805 217.86674529 71.23875715 225.59705012 60.6953125 229.19140625 C61.24254933 225.8167791 61.7502125 224.10905625 63.6953125 221.19140625 C67.70122231 211.13657263 67.8676886 199.8613654 68.6953125 189.19140625 C69.39100342 188.94664551 70.08669434 188.70188477 70.8034668 188.44970703 C81.25458226 184.68842823 85.71791322 180.0936502 90.53125 170.09375 C94.02166767 161.39113144 94.02905971 150.84608371 90.609375 142.12109375 C87.12366099 134.76236418 82.22844489 130.23363279 74.6953125 127.19140625 C71.70304838 126.68124974 68.72337144 126.38654783 65.6953125 126.19140625 C65.65664063 124.86689453 65.65664063 124.86689453 65.6171875 123.515625 C65.02040188 110.88818379 62.38177395 101.58217539 53.6953125 92.19140625 C47.90605795 86.94068701 43.71372645 85.750444 35.984375 85.86328125 C31.6524701 86.29544278 27.91434454 87.54048067 23.875 89.12109375 C15.56413727 91.91860774 7.36227457 92.60764567 -1.3671875 92.62890625 C-3.04880981 92.63470703 -3.04880981 92.63470703 -4.7644043 92.640625 C-14.06395474 92.51584244 -22.72624226 90.98788664 -31.78320312 88.99462891 C-43.77311175 86.08032221 -43.77311175 86.08032221 -55.640625 88.1953125 C-66.03027906 94.97369275 -69.42026817 107.82929547 -71.9921875 119.2421875 C-72.46312825 121.55437577 -72.9057221 123.86585792 -73.3046875 126.19140625 C-74.23087891 126.30355469 -74.23087891 126.30355469 -75.17578125 126.41796875 C-81.93165127 127.46682528 -87.38783604 129.2839381 -92.3046875 134.19140625 C-97.80936568 142.73753477 -100.30127065 151.07117457 -99.3046875 161.19140625 C-96.90275353 171.85599308 -92.12263311 179.76165424 -83.3046875 186.19140625 C-82.31855469 186.47886719 -81.33242187 186.76632812 -80.31640625 187.0625 C-75.37160475 190.55785255 -75.2259216 195.72052986 -74.1171875 201.44140625 C-73.8701709 202.6104248 -73.6231543 203.77944336 -73.36865234 204.98388672 C-72.65612002 208.3819369 -71.97692598 211.78519096 -71.3046875 215.19140625 C-70.95876713 216.87665933 -70.61134902 218.56160644 -70.26171875 220.24609375 C-69.58057187 223.55592935 -68.9294341 226.87038487 -68.3046875 230.19140625 C-72.17205526 227.70803157 -75.63187712 225.13601219 -78.9921875 222.00390625 C-88.7786739 212.53890919 -88.7786739 212.53890919 -100.5546875 206.12890625 C-105.87783804 204.28366077 -109.43777715 201.05186354 -112.3046875 196.19140625 C-112.3046875 194.87140625 -112.3046875 193.55140625 -112.3046875 192.19140625 C-112.8821875 191.98515625 -113.4596875 191.77890625 -114.0546875 191.56640625 C-117.97319544 189.17176251 -119.88052524 185.46389303 -121.3046875 181.19140625 C-122.00715044 174.28385402 -120.41412486 170.70979356 -116.3046875 165.19140625 C-116.77519531 164.83949219 -117.24570313 164.48757812 -117.73046875 164.125 C-122.74433377 160.14920227 -125.66665163 156.60980465 -126.6171875 150.02734375 C-126.94413257 144.0810303 -125.27236187 140.29209658 -122.3046875 135.19140625 C-123.1090625 134.26328125 -123.9134375 133.33515625 -124.7421875 132.37890625 C-127.97179714 128.65243359 -128.65899685 125.34171611 -128.5859375 120.3828125 C-127.9084194 115.10381727 -125.43306771 111.21720644 -121.5546875 107.69140625 C-120.8121875 107.19640625 -120.0696875 106.70140625 -119.3046875 106.19140625 C-119.72621094 105.72089844 -120.14773437 105.25039062 -120.58203125 104.765625 C-121.12988281 104.14300781 -121.67773438 103.52039063 -122.2421875 102.87890625 C-123.06009766 101.95658203 -123.06009766 101.95658203 -123.89453125 101.015625 C-126.85219433 97.18950683 -126.78922347 92.82533207 -126.3046875 88.19140625 C-124.55998734 83.50826372 -122.06180708 80.46684383 -118.3046875 77.19140625 C-117.6446875 77.19140625 -116.9846875 77.19140625 -116.3046875 77.19140625 C-116.7996875 76.05703125 -117.2946875 74.92265625 -117.8046875 73.75390625 C-120.09462652 67.54148796 -120.40041798 61.97712262 -117.6171875 55.87890625 C-114.43487548 50.26240468 -110.46547644 47.91069619 -104.3046875 46.19140625 C-104.6346875 45.20140625 -104.9646875 44.21140625 -105.3046875 43.19140625 C-105.86852879 37.49877787 -105.61188656 33.04196487 -102.3046875 28.19140625 C-98.65984471 24.60488094 -95.82154233 22.26853446 -90.6171875 22.00390625 C-86.53295086 22.04123931 -83.16757362 22.90377754 -79.3046875 24.19140625 C-76.55235292 21.82004454 -75.58915952 19.66562703 -74.4296875 16.25390625 C-72.49209627 11.14164631 -70.22330683 8.65071592 -65.3046875 6.19140625 C-60.01558639 5.78887289 -55.09178595 5.63828708 -50.3046875 8.19140625 C-49.3559375 7.38703125 -48.4071875 6.58265625 -47.4296875 5.75390625 C-43.82979819 2.70182618 -41.40832056 1.79155531 -36.53515625 1.8359375 C-31.19959655 2.68626313 -26.93716876 6.38009514 -23.3046875 10.19140625 C-22.9334375 9.05638672 -22.9334375 9.05638672 -22.5546875 7.8984375 C-18.55488245 -0.7636403 -8.43888643 -2.96076185 0 0 Z " fill="#3D2A20" transform="translate(259.3046875,75.80859375)"/>
<path d="M0 0 C9.04561461 5.23693477 14.99827858 14.26477575 18.3203125 24.00390625 C18.86183521 27.1504382 18.78343469 30.2210845 18.75390625 33.41015625 C18.74488281 34.6734375 18.73585938 35.93671875 18.7265625 37.23828125 C18.70916016 38.68460938 18.70916016 38.68460938 18.69140625 40.16015625 C20.64046875 40.00546875 20.64046875 40.00546875 22.62890625 39.84765625 C29.06817948 39.86790554 33.83405899 42.48333856 38.484375 46.83984375 C45.59361851 54.7390032 47.019243 62.44353643 46.90234375 72.8125 C46.31325894 82.16149418 42.67030163 90.60105009 35.69921875 96.984375 C31.35696752 100.36805379 27.34891557 103.16015625 21.69140625 103.16015625 C21.71460938 104.06636719 21.7378125 104.97257812 21.76171875 105.90625 C21.86719214 113.02570353 21.54911419 119.30585455 19.69140625 126.16015625 C19.37590176 127.74289363 19.06340827 129.32623416 18.75390625 130.91015625 C17.96951814 134.50838108 16.60043139 137.00611471 14.69140625 140.16015625 C14.56765625 141.23265625 14.44390625 142.30515625 14.31640625 143.41015625 C12.92575582 151.7540588 8.36786587 157.26916999 1.69140625 162.16015625 C-1.50209464 164.11215168 -4.78634742 165.83830608 -8.12109375 167.53515625 C-8.97896484 167.98503906 -9.83683594 168.43492187 -10.72070312 168.8984375 C-17.02107475 172.16015625 -17.02107475 172.16015625 -19.30859375 172.16015625 C-18.97859375 180.74015625 -18.64859375 189.32015625 -18.30859375 198.16015625 C-14.67859375 199.15015625 -11.04859375 200.14015625 -7.30859375 201.16015625 C-6.61632234 211.77498454 -10.51923629 220.13875323 -17.30859375 228.16015625 C-23.93824701 234.95379387 -30.83772715 240.2338783 -40.30859375 242.16015625 C-43.60859375 242.16015625 -46.90859375 242.16015625 -50.30859375 242.16015625 C-50.30859375 180.45015625 -50.30859375 118.74015625 -50.30859375 55.16015625 C-55.25932746 57.7884068 -55.25932746 57.7884068 -57.01171875 62.0390625 C-57.39154907 63.16707275 -57.39154907 63.16707275 -57.77905273 64.31787109 C-58.16492554 65.50823975 -58.16492554 65.50823975 -58.55859375 66.72265625 C-61.92686741 76.15758067 -66.37768608 83.73052146 -75.43359375 88.72265625 C-83.63850576 92.53338205 -97.3091755 92.80956896 -106.05078125 90.40625 C-110.71093297 88.16410153 -114.4575057 85.23468337 -116.43359375 80.41796875 C-116.72234375 79.38414062 -117.01109375 78.3503125 -117.30859375 77.28515625 C-117.63730469 76.145625 -117.96601563 75.00609375 -118.3046875 73.83203125 C-118.99058422 71.32330396 -119.66998166 68.81279303 -120.34375 66.30078125 C-120.68277344 65.058125 -121.02179688 63.81546875 -121.37109375 62.53515625 C-121.67144531 61.38789063 -121.97179687 60.240625 -122.28125 59.05859375 C-123.07232191 56.16501756 -123.07232191 56.16501756 -124.91796875 54.5546875 C-126.30859375 53.16015625 -126.30859375 53.16015625 -126.6015625 50.8984375 C-126.56675781 50.09792969 -126.53195313 49.29742187 -126.49609375 48.47265625 C-126.46902344 47.66441406 -126.44195312 46.85617188 -126.4140625 46.0234375 C-126.37925781 45.40855469 -126.34445313 44.79367188 -126.30859375 44.16015625 C-116.07222335 40.9031293 -105.77049407 39.79063792 -95.05859375 39.84765625 C-93.42289429 39.85394043 -93.42289429 39.85394043 -91.75415039 39.86035156 C-77.18752417 40.06289026 -64.61497272 43.58356151 -50.30859375 47.16015625 C-50.30859375 33.63015625 -50.30859375 20.10015625 -50.30859375 6.16015625 C-45.68859375 5.83015625 -41.06859375 5.50015625 -36.30859375 5.16015625 C-33.45566404 4.60728145 -30.61462513 3.97834559 -27.80859375 3.22265625 C-27.15890625 3.05314453 -26.50921875 2.88363281 -25.83984375 2.70898438 C-22.91504186 1.93355807 -20.05876906 1.07142758 -17.20703125 0.05859375 C-11.67678635 -1.65563311 -5.50084504 -2.00115344 0 0 Z " fill="#E3B591" transform="translate(306.30859375,161.83984375)"/>
<path d="M0 0 C1.02367676 0.22316895 2.04735352 0.44633789 3.10205078 0.67626953 C4.00383057 0.88050537 4.90561035 1.08474121 5.8347168 1.29516602 C10.94182671 2.14243681 16.12661276 2.43775647 21.28564453 2.86767578 C21.28564453 16.39767578 21.28564453 29.92767578 21.28564453 43.86767578 C14.68849103 43.20796043 9.73471246 42.6414765 3.59814453 40.86767578 C-14.94380709 35.54200435 -35.01021378 36.85452661 -53.71435547 40.86767578 C-54.21109217 47.20106866 -53.89144942 49.92012327 -49.71435547 54.86767578 C-48.58347123 58.11611685 -47.8784494 61.44620786 -47.15185547 64.80517578 C-44.70436045 76.45457899 -44.70436045 76.45457899 -36.71435547 84.86767578 C-32.36327954 87.08276898 -28.25022813 87.17814994 -23.46435547 87.11767578 C-22.70727295 87.1116333 -21.95019043 87.10559082 -21.17016602 87.09936523 C-11.42064663 86.92651999 -2.97217435 85.3626533 4.22314453 78.30517578 C8.65147922 73.18968572 10.74311429 67.38322823 12.93969727 61.07641602 C13.20468018 60.31917236 13.46966309 59.56192871 13.74267578 58.78173828 C13.96930908 58.10062988 14.19594238 57.41952148 14.42944336 56.71777344 C15.42450952 54.56761336 16.42695778 53.33420444 18.28564453 51.86767578 C19.27564453 51.86767578 20.26564453 51.86767578 21.28564453 51.86767578 C21.28564453 113.57767578 21.28564453 175.28767578 21.28564453 238.86767578 C23.92564453 238.86767578 26.56564453 238.86767578 29.28564453 238.86767578 C29.28564453 239.19767578 29.28564453 239.52767578 29.28564453 239.86767578 C15.06481191 240.63521697 3.24600999 238.38539485 -7.71435547 228.86767578 C-17.39638504 219.5380251 -20.28902644 210.94975356 -22.71435547 197.86767578 C-18.00176974 196.58968643 -14.67170499 195.86767578 -9.71435547 195.86767578 C-9.71435547 186.95767578 -9.71435547 178.04767578 -9.71435547 168.86767578 C-11.69435547 168.20767578 -13.67435547 167.54767578 -15.71435547 166.86767578 C-27.07799079 161.48294662 -37.97009079 156.20035705 -42.71435547 143.86767578 C-45.16700033 136.45937889 -46.9859365 128.89482472 -48.77685547 121.30517578 C-49.03273437 120.23332031 -49.28861328 119.16146484 -49.55224609 118.05712891 C-49.80296875 117.00332031 -50.05369141 115.94951172 -50.31201172 114.86376953 C-50.55540283 113.84766602 -50.79879395 112.8315625 -51.04956055 111.78466797 C-51.47487678 109.91846219 -51.86618054 108.04397087 -52.21313477 106.16162109 C-52.7862723 101.79119992 -52.7862723 101.79119992 -55.48876953 98.61889648 C-56.83136427 98.00396891 -58.18975945 97.42294663 -59.55810547 96.86767578 C-68.1735121 92.87212488 -71.88611999 83.74297039 -75.02685547 75.36767578 C-77.03448278 65.14702763 -75.44588326 55.97368473 -70.02685547 47.05517578 C-66.33499776 41.84042677 -61.72530054 38.87132414 -55.71435547 36.86767578 C-53.38135722 36.82813344 -51.04727358 36.82365846 -48.71435547 36.86767578 C-48.62798828 35.92408203 -48.54162109 34.98048828 -48.45263672 34.00830078 C-47.13133368 21.93474275 -44.21955944 11.00602149 -35.71435547 1.86767578 C-35.22580078 1.34044922 -34.73724609 0.81322266 -34.23388672 0.27001953 C-25.27902352 -7.66774809 -10.29862608 -2.27032454 0 0 Z " fill="#EFC8A4" transform="translate(234.71435546875,165.13232421875)"/>
<path d="M0 0 C1.08684082 0.00346436 2.17368164 0.00692871 3.29345703 0.01049805 C14.23993513 0.1574143 24.11320675 1.9340603 34.625 5 C44.13191917 7.62987261 51.24554502 6.03193511 60.4465332 3.1730957 C66.2806917 1.38167568 71.62690435 0.42019264 77.75 0.3125 C78.44931641 0.29348633 79.14863281 0.27447266 79.86914062 0.25488281 C89.19256949 0.02006483 98.40991236 0.18521745 107.6875 1.1875 C108.42621338 1.26589111 109.16492676 1.34428223 109.92602539 1.42504883 C113.81813463 1.89669632 117.19108856 2.65492481 120.75 4.3125 C120.75 7.2825 120.75 10.2525 120.75 13.3125 C119.76 13.6425 118.77 13.9725 117.75 14.3125 C116.95655094 16.96135277 116.34740318 19.48545023 115.8125 22.1875 C111.41364431 42.38926061 111.41364431 42.38926061 104.75 48.3125 C96.07827454 53.36137127 83.17941675 52.39382592 73.75 50.1875 C65.3986949 47.47050868 60.43161545 42.87057619 56.203125 35.25 C48.75 20.18346774 48.75 20.18346774 48.75 16.3125 C45.37563814 15.97869186 45.37563814 15.97869186 41.75 16.3125 C38.98031996 19.03383151 37.9965899 22.20717806 36.81103516 25.84667969 C33.59730304 35.64112874 28.98926812 43.73917078 19.625 48.875 C11.42008799 52.6857258 -2.25058175 52.96191271 -10.9921875 50.55859375 C-15.65233922 48.31644528 -19.39891195 45.38702712 -21.375 40.5703125 C-21.66375 39.53648437 -21.9525 38.50265625 -22.25 37.4375 C-22.57871094 36.29796875 -22.90742188 35.1584375 -23.24609375 33.984375 C-23.93199047 31.47564771 -24.61138791 28.96513678 -25.28515625 26.453125 C-25.62417969 25.21046875 -25.96320313 23.9678125 -26.3125 22.6875 C-26.61285156 21.54023438 -26.91320312 20.39296875 -27.22265625 19.2109375 C-28.01372816 16.31736131 -28.01372816 16.31736131 -29.859375 14.70703125 C-31.25 13.3125 -31.25 13.3125 -31.54296875 11.05078125 C-31.50816406 10.25027344 -31.47335938 9.44976562 -31.4375 8.625 C-31.41042969 7.81675781 -31.38335937 7.00851563 -31.35546875 6.17578125 C-31.32066406 5.56089844 -31.28585938 4.94601563 -31.25 4.3125 C-21.01333934 1.0553807 -10.71210936 -0.05620292 0 0 Z " fill="#020201" transform="translate(211.25,201.6875)"/>
</svg>
