<?xml version="1.0" encoding="UTF-8"?>
<svg version="1.1" xmlns="http://www.w3.org/2000/svg" width="512" height="512">
<path d="M0 0 C168.96 0 337.92 0 512 0 C512 168.96 512 337.92 512 512 C343.04 512 174.08 512 0 512 C0 343.04 0 174.08 0 0 Z " fill="#D8898F" transform="translate(0,0)"/>
<path d="M0 0 C3.51973101 3.25901019 6.52760275 6.8860931 9 11 C9 11.66 9 12.32 9 13 C9.86882812 12.65066406 10.73765625 12.30132812 11.6328125 11.94140625 C12.78523438 11.48636719 13.93765625 11.03132813 15.125 10.5625 C16.26195312 10.11003906 17.39890625 9.65757812 18.5703125 9.19140625 C21.74206741 8.08960073 24.67942748 7.43904226 28 7 C28.29132813 7.82242187 28.58265625 8.64484375 28.8828125 9.4921875 C35.45031655 27.37727715 44.7145701 38.79040516 62 47 C77.24287028 51.8873965 93.57566541 51.39056134 107.91113281 44.01904297 C122.792236 35.83236364 131.1671569 22.81657741 136 7 C142.48707154 8.6813917 148.7677635 10.53062327 155 13 C155.20625 12.34 155.4125 11.68 155.625 11 C157.51152871 6.88393737 160.20567979 3.5412297 163 0 C167.09385404 3.71626556 170.09332386 8.12409334 173.25 12.625 C173.80429687 13.40101563 174.35859375 14.17703125 174.9296875 14.9765625 C175.45304688 15.7190625 175.97640625 16.4615625 176.515625 17.2265625 C176.99290039 17.90283691 177.47017578 18.57911133 177.96191406 19.27587891 C179 21 179 21 179 23 C180.65 23.66 182.3 24.32 184 25 C184 66.91 184 108.82 184 152 C116.68 152 49.36 152 -20 152 C-20 110.09 -20 68.18 -20 25 C-18.35 24.34 -16.7 23.68 -15 23 C-13.95709327 20.76022687 -13.95709327 20.76022687 -13 18 C-11.29029646 15.3668815 -9.39252329 12.87880343 -7.5 10.375 C-6.50995522 9.04982379 -5.5203549 7.72431538 -4.53125 6.3984375 C-4.09361328 5.81755371 -3.65597656 5.23666992 -3.20507812 4.63818359 C-2.09149134 3.12437335 -1.04243753 1.56365629 0 0 Z " fill="#DC0416" transform="translate(174,360)"/>
<path d="M0 0 C5.31886852 1.61666252 9.73144217 2.13292066 15.44335938 2.76757812 C15.44335938 42.69757813 15.44335938 82.62757813 15.44335938 123.76757812 C1.58129041 129.54344019 1.58129041 129.54344019 -3.68164062 131.58007812 C-4.75671875 131.99902344 -5.83179688 132.41796875 -6.93945312 132.84960938 C-9.55664062 133.76757812 -9.55664062 133.76757812 -11.55664062 133.76757812 C-11.55664062 135.08757812 -11.55664062 136.40757812 -11.55664062 137.76757812 C-10.91637939 137.64640625 -10.27611816 137.52523437 -9.61645508 137.40039062 C-6.70154026 136.85145239 -3.7853765 136.30945246 -0.86914062 135.76757812 C0.13826172 135.57679688 1.14566406 135.38601563 2.18359375 135.18945312 C3.16005859 135.00898438 4.13652344 134.82851563 5.14257812 134.64257812 C6.03807373 134.475 6.93356934 134.30742187 7.85620117 134.13476562 C10.42590412 133.7700555 12.85227596 133.74214799 15.44335938 133.76757812 C15.60641475 141.9219843 15.73035921 150.07569603 15.80604458 158.23133564 C15.84239267 162.01947919 15.89159386 165.80649786 15.97143555 169.59399414 C16.04817024 173.2575331 16.08948776 176.91999873 16.10750008 180.58428001 C16.12031531 181.9736945 16.14533855 183.36305817 16.18346977 184.75200844 C16.4480743 194.80108226 14.70114763 200.88708789 8.44335938 208.76757812 C7.84873398 209.55706848 7.25410858 210.34655884 6.64146423 211.15997314 C4.57007961 213.90219472 2.43841072 216.59207441 0.27929688 219.265625 C-0.49027344 220.2546582 -0.49027344 220.2546582 -1.27539062 221.26367188 C-1.73880859 221.8430249 -2.20222656 222.42237793 -2.6796875 223.01928711 C-3.75354451 224.76091279 -3.75354451 224.76091279 -3.30957031 226.88183594 C-2.26631139 229.49471917 -0.95837791 230.34417089 1.44335938 231.76757812 C12.38886635 235.24854718 23.95533249 234.40972818 34.44335938 229.76757812 C45.74882694 222.46038567 50.27472654 212.44210948 53.44335938 199.76757812 C58.72335937 201.08757812 64.00335938 202.40757812 69.44335938 203.76757812 C67.30556885 218.51833274 59.42088987 229.17717719 48.06835938 238.58007812 C35.11755833 248.09678461 20.33517971 250.08788983 4.69335938 248.20507812 C-10.34380457 245.42184984 -22.19124072 236.05202199 -31.09179688 223.94726562 C-35.43615694 217.48285785 -37.35913459 211.45682741 -38.55664062 203.76757812 C-36.22504758 203.11485351 -33.89166267 202.4703261 -31.55664062 201.83007812 C-30.58404297 201.55647461 -30.58404297 201.55647461 -29.59179688 201.27734375 C-28.94082031 201.10009766 -28.28984375 200.92285156 -27.61914062 200.74023438 C-27.03261719 200.57789307 -26.44609375 200.41555176 -25.84179688 200.24829102 C-22.45225136 199.53525521 -18.99362519 199.1972012 -15.55664062 198.76757812 C-15.55664062 189.85757813 -15.55664062 180.94757813 -15.55664062 171.76757812 C-17.53664063 171.10757813 -19.51664063 170.44757813 -21.55664062 169.76757812 C-35.99343067 163.34479053 -44.47036163 156.67053452 -50.55664062 141.76757812 C-55.21193305 129.45233086 -59.55664062 114.99257949 -59.55664062 101.76757812 C-60.57757813 101.67476562 -60.57757813 101.67476562 -61.61914062 101.58007812 C-68.70039789 99.6214325 -72.52948864 95.04816611 -76.27148438 89.04101562 C-81.51894657 79.75827095 -83.35512426 69.50322461 -80.90820312 58.97851562 C-78.68374408 52.83748766 -75.13088281 48.3675183 -70.55664062 43.76757812 C-66.87887863 44.29930275 -64.67294478 45.07291293 -61.86914062 47.51757812 C-61.28777344 48.00742188 -60.70640625 48.49726563 -60.10742188 49.00195312 C-58.26252057 51.10244529 -57.4634213 53.14104099 -56.55664062 55.76757812 C-56.54729492 55.15986572 -56.53794922 54.55215332 -56.52832031 53.92602539 C-55.79203439 15.60667414 -55.79203439 15.60667414 -43.86132812 1.80664062 C-30.89117262 -10.1165965 -14.98005476 -4.73563021 0 0 Z " fill="#F0C8A4" transform="translate(240.556640625,162.232421875)"/>
<path d="M0 0 C10.47216836 6.31487539 14.25801323 16.78205292 17.125 28.25 C19.13686411 38.33205346 19.13526243 48.68838771 19.375 58.9375 C19.80039062 58.01839844 20.22578125 57.09929687 20.6640625 56.15234375 C22.86283371 52.02086268 25.3856953 49.37344712 29.375 46.9375 C33.02906579 46.6764953 34.12999459 47.73432478 36.9375 50.0625 C44.39919487 58.86347344 45.08106241 67.85538602 44.56298828 79.00048828 C44.13579973 83.40219468 42.49130919 87.10903789 40.375 90.9375 C39.7975 91.989375 39.22 93.04125 38.625 94.125 C35.24272623 98.35284222 31.20333091 103.14280318 25.85693359 104.64501953 C23.11598783 105.73260279 23.11598783 105.73260279 22.26000977 108.66455078 C22.03112061 109.80907715 21.80223145 110.95360352 21.56640625 112.1328125 C21.29755615 113.39907471 21.02870605 114.66533691 20.75170898 115.9699707 C20.61900604 116.63904449 20.4863031 117.30811829 20.34957886 117.99746704 C19.66198869 121.44315791 18.89712049 124.8714267 18.1328125 128.30078125 C17.98442429 128.97153183 17.83603607 129.64228241 17.68315125 130.33335876 C14.50537298 144.46333544 9.90268222 158.0353349 -2.6875 166.23046875 C-17.67076659 174.9375 -17.67076659 174.9375 -21.625 174.9375 C-21.295 183.5175 -20.965 192.0975 -20.625 200.9375 C-17.655 201.9275 -17.655 201.9275 -14.625 202.9375 C-14.98672468 212.34234162 -19.06519762 220.66210297 -25.5625 227.4375 C-33.44284891 234.60550098 -43.66662168 238.7265427 -54.484375 238.2265625 C-66.44458245 236.61149799 -66.44458245 236.61149799 -71.046875 233.078125 C-72.625 230.9375 -72.625 230.9375 -72.39648438 229.05664062 C-71.52050611 226.65047248 -70.38749418 224.94461123 -68.859375 222.890625 C-68.01826172 221.7459375 -68.01826172 221.7459375 -67.16015625 220.578125 C-66.27650391 219.39476562 -66.27650391 219.39476562 -65.375 218.1875 C-64.22140874 216.63209605 -63.07034058 215.07481744 -61.921875 213.515625 C-61.40979492 212.82887695 -60.89771484 212.14212891 -60.37011719 211.43457031 C-59.50628418 210.19852051 -59.50628418 210.19852051 -58.625 208.9375 C-58.19802322 208.42687012 -57.77104645 207.91624023 -57.33113098 207.39013672 C-52.43437805 200.89354006 -52.89233484 193.99079868 -52.91796875 186.15625 C-52.90483456 184.73276673 -52.88952507 183.30930204 -52.87214661 181.88586426 C-52.83248358 178.16388004 -52.82211843 174.44238541 -52.81811523 170.72021484 C-52.80874814 166.9122856 -52.77131256 163.1046398 -52.73632812 159.296875 C-52.67194326 151.84374723 -52.63854696 144.39091211 -52.625 136.9375 C-53.30079102 137.05867187 -53.97658203 137.17984375 -54.67285156 137.3046875 C-57.739612 137.85251142 -60.80728287 138.39506017 -63.875 138.9375 C-64.93847656 139.12828125 -66.00195312 139.3190625 -67.09765625 139.515625 C-68.12246094 139.69609375 -69.14726562 139.8765625 -70.203125 140.0625 C-71.14575195 140.23007812 -72.08837891 140.39765625 -73.05957031 140.5703125 C-75.625 140.9375 -75.625 140.9375 -79.625 140.9375 C-79.625 139.6175 -79.625 138.2975 -79.625 136.9375 C-71.045 133.6375 -62.465 130.3375 -53.625 126.9375 C-53.295 87.0075 -52.965 47.0775 -52.625 5.9375 C-55.595 5.9375 -58.565 5.9375 -61.625 5.9375 C-61.625 5.6075 -61.625 5.2775 -61.625 4.9375 C-61.07263672 4.93339111 -60.52027344 4.92928223 -59.95117188 4.92504883 C-47.31053833 4.76141179 -36.45762376 3.4163448 -24.625 -1.0625 C-17.18563062 -3.54228979 -7.13278974 -3.32137537 0 0 Z " fill="#E3B591" transform="translate(308.625,159.0625)"/>
<path d="M0 0 C4.74375517 4.31735022 8.09031445 9.2987615 11.625 14.625 C12.76001779 16.32752669 13.89792789 18.0281296 15.0390625 19.7265625 C15.53615723 20.47502441 16.03325195 21.22348633 16.54541016 21.99462891 C17.90188819 23.8647381 19.31789363 25.42283008 21 27 C27.73755044 18.05028717 34.45214884 9.08995808 41 0 C43.74939631 2.62455886 45.99122574 5.24294377 48.09375 8.40625 C48.64933594 9.23253906 49.20492187 10.05882812 49.77734375 10.91015625 C50.92578125 12.63671875 52.07421875 14.36328125 53.22265625 16.08984375 C54.05603516 17.32927734 54.05603516 17.32927734 54.90625 18.59375 C55.40447266 19.34333984 55.90269531 20.09292969 56.41601562 20.86523438 C58.10116599 23.13634331 59.95678949 25.04956229 62 27 C64.04452761 24.18956999 66.08507215 21.37627004 68.125 18.5625 C68.97964844 17.3878418 68.97964844 17.3878418 69.8515625 16.18945312 C73.30154285 11.42612798 76.59951674 6.61040193 79.73388672 1.63256836 C80.36061279 0.82444702 80.36061279 0.82444702 81 0 C81.66 0 82.32 0 83 0 C84.79220719 2.40469551 86.47174204 4.81456684 88.125 7.3125 C89.11206813 8.77816147 90.10035785 10.24300096 91.08984375 11.70703125 C91.57952637 12.4335791 92.06920898 13.16012695 92.57373047 13.90869141 C95.60442143 18.35252892 98.80232743 22.675354 102 27 C104.74939631 24.37544114 106.99122574 21.75705623 109.09375 18.59375 C109.64933594 17.76746094 110.20492187 16.94117188 110.77734375 16.08984375 C111.34582031 15.23519531 111.91429687 14.38054687 112.5 13.5 C113.63123745 11.79929608 114.76653229 10.10128261 115.90625 8.40625 C116.40447266 7.65666016 116.90269531 6.90707031 117.41601562 6.13476562 C119.10116599 3.86365669 120.95678949 1.95043771 123 0 C128.1921912 6.62302468 133.303736 13.28781816 138.125 20.1875 C138.87007812 21.25355469 139.61515625 22.31960938 140.3828125 23.41796875 C142 26 142 26 142 28 C142.66 28 143.32 28 144 28 C144.27094482 27.43015381 144.54188965 26.86030762 144.82104492 26.27319336 C146.96092237 22.14720476 149.69401789 18.39577181 152.3125 14.5625 C152.88162109 13.71623047 153.45074219 12.86996094 154.03710938 11.99804688 C157.05866005 7.56805811 160.03743234 3.62058246 164 0 C166.02212058 2.79073623 168.04244599 5.58276762 170.0625 8.375 C170.62388672 9.14972656 171.18527344 9.92445313 171.76367188 10.72265625 C185.06885619 29.12182542 184 29.23909138 184 57 C116.68 57 49.36 57 -20 57 C-20 23.97386566 -20 23.97386566 -9.55664062 12.72216797 C-7.20529726 10.12079154 -5.26263978 7.30804558 -3.25 4.4375 C-2.1679574 2.95738888 -1.08520509 1.47779398 0 0 Z " fill="#3E1D1B" transform="translate(174,455)"/>
<path d="M0 0 C4.09385404 3.71626556 7.09332386 8.12409334 10.25 12.625 C10.80429687 13.40101563 11.35859375 14.17703125 11.9296875 14.9765625 C12.45304688 15.7190625 12.97640625 16.4615625 13.515625 17.2265625 C13.99290039 17.90283691 14.47017578 18.57911133 14.96191406 19.27587891 C16 21 16 21 16 23 C17.65 23.66 19.3 24.32 21 25 C21 51.73 21 78.46 21 106 C18.0349088 103.0349088 15.93991524 100.66261053 13.65234375 97.26953125 C13.04712891 96.38458984 12.44191406 95.49964844 11.81835938 94.58789062 C10.55778008 92.72778349 9.29999399 90.86578055 8.04492188 89.00195312 C7.44099609 88.12087891 6.83707031 87.23980469 6.21484375 86.33203125 C5.66948975 85.52483643 5.12413574 84.7176416 4.56225586 83.88598633 C3.05100894 81.72319225 3.05100894 81.72319225 0 81 C-5.77695796 86.22677148 -9.75850654 92.71260713 -14.09179688 99.13476562 C-14.69443359 100.01455078 -15.29707031 100.89433594 -15.91796875 101.80078125 C-16.46219482 102.60684814 -17.0064209 103.41291504 -17.56713867 104.2434082 C-18.03998291 104.8230835 -18.51282715 105.40275879 -19 106 C-19.66 106 -20.32 106 -21 106 C-22.34106445 104.36694336 -22.34106445 104.36694336 -23.86328125 102.08984375 C-24.42080078 101.26419922 -24.97832031 100.43855469 -25.55273438 99.58789062 C-26.13345703 98.71326172 -26.71417969 97.83863281 -27.3125 96.9375 C-28.45378565 95.23785036 -29.59570333 93.53862493 -30.73828125 91.83984375 C-31.28693848 91.02112793 -31.8355957 90.20241211 -32.40087891 89.35888672 C-34.5443361 86.19704192 -36.76156512 83.09517168 -39 80 C-42.4961042 81.4283584 -44.00873311 83.03467621 -46.05859375 86.17578125 C-46.60966797 87.00400391 -47.16074219 87.83222656 -47.72851562 88.68554688 C-48.57446289 89.98588867 -48.57446289 89.98588867 -49.4375 91.3125 C-52.9476438 96.67263903 -56.23496872 101.68029875 -61 106 C-67.64199413 97.52764423 -73.96034438 88.91359803 -80 80 C-83.53145951 81.17715317 -83.96110727 82.01534894 -85.9609375 85.04296875 C-86.51523438 85.86990234 -87.06953125 86.69683594 -87.640625 87.54882812 C-88.21296875 88.41958984 -88.7853125 89.29035156 -89.375 90.1875 C-93.02557729 95.69253722 -96.64920633 101.0218447 -101 106 C-105.76291783 101.66601286 -109.13225812 96.65542863 -112.6875 91.3125 C-113.83535588 89.59899705 -114.98501197 87.88669826 -116.13671875 86.17578125 C-116.63905029 85.42208252 -117.14138184 84.66838379 -117.65893555 83.8918457 C-118.99932529 81.88870996 -118.99932529 81.88870996 -121 80 C-120.67111495 76.18008756 -119.39521509 73.68110289 -117.234375 70.56640625 C-116.67363281 69.75236328 -116.11289063 68.93832031 -115.53515625 68.09960938 C-114.65150391 66.84374023 -114.65150391 66.84374023 -113.75 65.5625 C-113.17636719 64.72912109 -112.60273438 63.89574219 -112.01171875 63.03710938 C-108.86520881 58.50369813 -105.61026589 54.17352166 -102 50 C-97.9524652 53.82716086 -94.68475862 57.92016242 -91.4375 62.4375 C-90.96892578 63.08009766 -90.50035156 63.72269531 -90.01757812 64.38476562 C-87.85286017 67.36692951 -85.75904604 70.36065138 -83.78515625 73.47265625 C-83.19605469 74.30667969 -82.60695312 75.14070313 -82 76 C-81.34 76 -80.68 76 -80 76 C-78.50094507 74.25904819 -78.50094507 74.25904819 -76.98828125 71.9765625 C-76.39466797 71.11933594 -75.80105469 70.26210938 -75.18945312 69.37890625 C-74.57005859 68.47011719 -73.95066406 67.56132812 -73.3125 66.625 C-71.48727643 63.97832781 -69.66204197 61.3316697 -67.83496094 58.6862793 C-66.6010366 56.87988368 -65.38573564 55.06063913 -64.18847656 53.22973633 C-60.96735017 48.39141345 -58.50569319 44.99661018 -53.125 42.4375 C-38.5530469 34.64150509 -32.33161551 22.05119778 -27 7 C-20.51292846 8.6813917 -14.2322365 10.53062327 -8 13 C-7.79375 12.34 -7.5875 11.68 -7.375 11 C-5.48847129 6.88393737 -2.79432021 3.5412297 0 0 Z " fill="#DC0415" transform="translate(337,360)"/>
<path d="M0 0 C2.47192669 1.91302369 4.81632199 3.89887583 7.13671875 5.9921875 C7.81992187 6.59417969 8.503125 7.19617188 9.20703125 7.81640625 C22.88252445 20.60701459 29.90529472 36.78927372 33.13671875 54.9921875 C33.40162109 56.18714844 33.40162109 56.18714844 33.671875 57.40625 C34.79460768 63.65204021 35.13578426 69.72760688 34.13671875 75.9921875 C32.11716871 78.76647698 30.1291922 80.4014044 27.33984375 82.375 C24.34915486 84.57029291 23.41669783 86.57890995 22.13671875 89.9921875 C21.80671875 89.9921875 21.47671875 89.9921875 21.13671875 89.9921875 C21.1227002 89.03517944 21.1227002 89.03517944 21.10839844 88.05883789 C20.78243251 59.98514478 20.78243251 59.98514478 8.6640625 35.25390625 C1.84840581 29.0925526 -5.77926002 28.301748 -14.56640625 28.55859375 C-21.40079996 29.04521004 -27.51426204 31.55946029 -33.86328125 33.9921875 C-46.32357021 37.7559927 -63.38066089 36.52508872 -75.12890625 31.18359375 C-82.42091383 28.00636188 -92.1135243 27.60169778 -99.71875 29.828125 C-107.19720193 33.19965098 -111.07575991 37.81466549 -114.265625 45.26953125 C-118.4417572 56.41798852 -120.14243347 66.75749077 -120.48828125 78.6171875 C-120.52695313 79.71675781 -120.565625 80.81632812 -120.60546875 81.94921875 C-120.69871513 84.63005209 -120.78451392 87.3108964 -120.86328125 89.9921875 C-122.86328125 88.9921875 -122.86328125 88.9921875 -123.98828125 86.3046875 C-125.99494746 82.7595772 -126.6682174 82.48133526 -130.05078125 80.6796875 C-132.1796875 79.1953125 -132.1796875 79.1953125 -133.86328125 76.9921875 C-134.77643836 71.25925413 -134.40829017 65.74975152 -133.86328125 59.9921875 C-133.76402344 58.82300781 -133.66476563 57.65382813 -133.5625 56.44921875 C-130.96360824 34.89679312 -117.77467223 14.95436359 -100.93359375 1.68359375 C-69.75833778 -20.91656125 -31.87008444 -22.34819018 0 0 Z " fill="#272522" transform="translate(305.86328125,129.0078125)"/>
<path d="M0 0 C8.52291503 4.26145751 15.12131059 7.77466281 22 14 C22.57492187 14.49628906 23.14984375 14.99257813 23.7421875 15.50390625 C44.77862964 36.37685273 48.97199313 93.44898386 52 122 C52 123.65 52 125.3 52 127 C34.84 127 17.68 127 0 127 C0 85.09 0 43.18 0 0 Z " fill="#FEFEFE" transform="translate(358,385)"/>
<path d="M0 0 C0 41.91 0 83.82 0 127 C-17.16 127 -34.32 127 -52 127 C-50.87275356 116.85478207 -50.87275356 116.85478207 -49.90625 112.1484375 C-49.68509521 111.06941162 -49.46394043 109.99038574 -49.23608398 108.87866211 C-48.99317627 107.72245361 -48.75026855 106.56624512 -48.5 105.375 C-48.24226807 104.13951416 -47.98453613 102.90402832 -47.71899414 101.63110352 C-43.25006539 80.38149855 -38.33435344 59.20495029 -33.125 38.125 C-32.94638428 37.39659912 -32.76776855 36.66819824 -32.58374023 35.91772461 C-28.66137275 20.37186967 -21.84651564 12.13664934 -8.13671875 3.8125 C-1.5387931 0 -1.5387931 0 0 0 Z " fill="#FEFEFE" transform="translate(154,385)"/>
<path d="M0 0 C3.4961042 1.4283584 5.00873311 3.03467621 7.05859375 6.17578125 C7.60966797 7.00400391 8.16074219 7.83222656 8.72851562 8.68554688 C9.29248047 9.55244141 9.85644531 10.41933594 10.4375 11.3125 C13.9476438 16.67263903 17.23496872 21.68029875 22 26 C22.32685791 25.53215088 22.65371582 25.06430176 22.99047852 24.58227539 C35.00190081 7.41314372 35.00190081 7.41314372 41 0 C44.54035067 1.18011689 44.98313479 2.04370775 46.99609375 5.078125 C47.55490234 5.90957031 48.11371094 6.74101562 48.68945312 7.59765625 C49.26630859 8.47292969 49.84316406 9.34820312 50.4375 10.25 C51.58023263 11.96474166 52.72471793 13.67831682 53.87109375 15.390625 C54.67716064 16.5981543 54.67716064 16.5981543 55.49951172 17.83007812 C56.72611777 19.6039269 58.05516071 21.30655232 59.41015625 22.984375 C61 25 61 25 61 27 C63.84428117 24.29613418 66.10908033 21.57164681 68.27734375 18.3046875 C68.87353516 17.42425781 69.46972656 16.54382813 70.08398438 15.63671875 C71.3220706 13.79198332 72.55383115 11.94298704 73.77929688 10.08984375 C74.67551758 8.77306641 74.67551758 8.77306641 75.58984375 7.4296875 C76.12472412 6.62772949 76.65960449 5.82577148 77.21069336 4.99951172 C79.28949693 2.67649341 81.05730736 1.93052798 84 1 C86.29245797 3.73255736 88.51115647 6.5144822 90.69384766 9.33544922 C91.60111163 10.49165964 92.52389375 11.63579339 93.45849609 12.77001953 C101.03842714 22.02789489 104.4006005 28.73555263 103.38671875 40.84375 C103.25910156 41.8853125 103.13148438 42.926875 103 44 C100.25060369 41.37544114 98.00877426 38.75705623 95.90625 35.59375 C95.35066406 34.76746094 94.79507813 33.94117188 94.22265625 33.08984375 C92.5 30.5 92.5 30.5 90.77734375 27.91015625 C90.22175781 27.08386719 89.66617188 26.25757813 89.09375 25.40625 C88.59552734 24.65666016 88.09730469 23.90707031 87.58398438 23.13476562 C85.89883401 20.86365669 84.04321051 18.95043771 82 17 C80.6955361 18.84624888 79.3912903 20.69265093 78.08740234 22.53930664 C76.98568002 24.09896593 75.88313801 25.65804651 74.77978516 27.21655273 C72.40078261 30.58029769 70.02447264 33.94358939 67.71484375 37.35546875 C67.10769531 38.24878906 66.50054687 39.14210938 65.875 40.0625 C65.35679687 40.83722656 64.83859375 41.61195313 64.3046875 42.41015625 C63.87414062 42.93480469 63.44359375 43.45945312 63 44 C62.34 44 61.68 44 61 44 C59.20779281 41.59530449 57.52825796 39.18543316 55.875 36.6875 C54.88793187 35.22183853 53.89964215 33.75699904 52.91015625 32.29296875 C52.17563232 31.20314697 52.17563232 31.20314697 51.42626953 30.09130859 C48.39557857 25.64747108 45.19767257 21.324646 42 17 C37.64021177 22.28944895 33.73748932 27.90413922 29.77734375 33.49414062 C27.07089311 37.27752001 24.46915536 40.86245508 21 44 C15.8078088 37.37697532 10.696264 30.71218184 5.875 23.8125 C5.12992187 22.74644531 4.38484375 21.68039062 3.6171875 20.58203125 C2 18 2 18 2 16 C1.34 16 0.68 16 0 16 C-0.22171875 16.67417969 -0.4434375 17.34835937 -0.671875 18.04296875 C-2.39119918 21.87099347 -4.73152299 24.9736831 -7.25 28.3125 C-7.74218018 28.97386963 -8.23436035 29.63523926 -8.74145508 30.31665039 C-10.15583926 32.21500714 -11.57710221 34.10802077 -13 36 C-14.01900391 37.36511719 -14.01900391 37.36511719 -15.05859375 38.7578125 C-16.36729864 40.50902911 -17.68259037 42.25532238 -19 44 C-23.74375517 39.68264978 -27.09031445 34.7012385 -30.625 29.375 C-31.76001779 27.67247331 -32.89792789 25.9718704 -34.0390625 24.2734375 C-34.53615723 23.52497559 -35.03325195 22.77651367 -35.54541016 22.00537109 C-36.90188819 20.1352619 -38.31789363 18.57716992 -40 17 C-40.35715088 17.49814209 -40.71430176 17.99628418 -41.08227539 18.50952148 C-54.19198141 36.77693689 -54.19198141 36.77693689 -60 44 C-62.74939631 41.37544114 -64.99122574 38.75705623 -67.09375 35.59375 C-67.64933594 34.76746094 -68.20492187 33.94117188 -68.77734375 33.08984375 C-70.5 30.5 -70.5 30.5 -72.22265625 27.91015625 C-72.77824219 27.08386719 -73.33382812 26.25757813 -73.90625 25.40625 C-74.65358398 24.28186523 -74.65358398 24.28186523 -75.41601562 23.13476562 C-77.10116599 20.86365669 -78.95678949 18.95043771 -81 17 C-82.30449092 18.84628713 -83.60878834 20.69271049 -84.9128418 22.53930664 C-86.01418435 24.09865904 -87.11591076 25.6577404 -88.21801758 27.21655273 C-90.59918178 30.58684303 -92.97882258 33.95745289 -95.3203125 37.35546875 C-95.93648437 38.24878906 -96.55265625 39.14210938 -97.1875 40.0625 C-97.98220703 41.22458984 -97.98220703 41.22458984 -98.79296875 42.41015625 C-99.19128906 42.93480469 -99.58960938 43.45945312 -100 44 C-100.33 44 -100.66 44 -101 44 C-102.40577617 33.59985964 -101.78373521 26.52000891 -95.375 17.9375 C-93.81965626 15.91781353 -92.23715885 13.93378545 -90.60449219 11.97607422 C-88.41391347 9.27818254 -86.44637845 6.4321798 -84.47900391 3.56860352 C-82.7237496 1.70701406 -81.49358353 1.37928401 -79 1 C-73.60264338 7.40747644 -68.84987305 14.04084267 -64.32666016 21.08422852 C-62.20946551 24.60486516 -62.20946551 24.60486516 -59 27 C-58.78988281 26.34 -58.57976562 25.68 -58.36328125 25 C-56.5015572 20.90314021 -53.90815399 17.56612929 -51.1875 14 C-50.66607422 13.30132812 -50.14464844 12.60265625 -49.60742188 11.8828125 C-46.63674122 7.95157468 -43.57924621 4.38738273 -40 1 C-36.48858076 2.43208963 -34.9706673 4.06156609 -32.90625 7.2109375 C-32.07287109 8.46003906 -32.07287109 8.46003906 -31.22265625 9.734375 C-30.65417969 10.60578125 -30.08570313 11.4771875 -29.5 12.375 C-28.36865074 14.09382994 -27.23335214 15.81006816 -26.09375 17.5234375 C-25.59552734 18.28575684 -25.09730469 19.04807617 -24.58398438 19.83349609 C-22.90612746 22.12839471 -21.05617534 24.04218764 -19 26 C-18.6376123 25.49662109 -18.27522461 24.99324219 -17.90185547 24.47460938 C-16.22704113 22.14915924 -14.55102685 19.82457637 -12.875 17.5 C-12.02035156 16.31277344 -12.02035156 16.31277344 -11.1484375 15.1015625 C-7.48703637 10.02552911 -3.77505983 4.99209918 0 0 Z " fill="#DC0315" transform="translate(255,439)"/>
<path d="M0 0 C4.0475348 3.82716086 7.31524138 7.92016242 10.5625 12.4375 C11.26536133 13.40139648 11.26536133 13.40139648 11.98242188 14.38476562 C14.14713983 17.36692951 16.24095396 20.36065138 18.21484375 23.47265625 C18.80394531 24.30667969 19.39304688 25.14070313 20 26 C20.66 26 21.32 26 22 26 C23.54836468 24.19326496 23.54836468 24.19326496 25.1171875 21.8359375 C25.72433594 20.96066406 26.33148438 20.08539063 26.95703125 19.18359375 C27.58996094 18.25675781 28.22289062 17.32992188 28.875 16.375 C29.50019531 15.47136719 30.12539063 14.56773437 30.76953125 13.63671875 C33.88893686 9.11918632 36.97235385 4.57950498 40 0 C43.25055061 1.37468028 44.85389812 2.76745694 46.83984375 5.66796875 C47.34580078 6.39693359 47.85175781 7.12589844 48.37304688 7.87695312 C49.14745117 9.02067383 49.14745117 9.02067383 49.9375 10.1875 C50.96732699 11.68107297 51.99727365 13.17456343 53.02734375 14.66796875 C53.52089355 15.39806152 54.01444336 16.1281543 54.52294922 16.88037109 C55.4848826 18.26078525 56.48553002 19.61525297 57.52783203 20.93603516 C61.04691038 25.4227081 61.04691038 25.4227081 60.80151367 28.44262695 C59.95254682 31.15140789 58.92206967 32.90746112 57.234375 35.1796875 C56.67363281 35.94410156 56.11289062 36.70851563 55.53515625 37.49609375 C54.94605469 38.28113281 54.35695313 39.06617188 53.75 39.875 C52.59887725 41.434836 51.44783448 42.99473103 50.296875 44.5546875 C49.74193359 45.30073242 49.18699219 46.04677734 48.61523438 46.81542969 C46.37149125 49.85004478 44.18346745 52.92180341 42 56 C37.4175092 51.7528134 33.91731435 46.96174822 30.3125 41.875 C29.73177734 41.06417969 29.15105469 40.25335938 28.55273438 39.41796875 C26.32626377 36.30348386 24.12382033 33.18573049 22 30 C18.46854049 31.17715317 18.03889273 32.01534894 16.0390625 35.04296875 C15.48476562 35.86990234 14.93046875 36.69683594 14.359375 37.54882812 C13.78703125 38.41958984 13.2146875 39.29035156 12.625 40.1875 C8.97442271 45.69253722 5.35079367 51.0218447 1 56 C-3.76291783 51.66601286 -7.13225812 46.65542863 -10.6875 41.3125 C-11.83535588 39.59899705 -12.98501197 37.88669826 -14.13671875 36.17578125 C-14.89021606 35.04523315 -14.89021606 35.04523315 -15.65893555 33.8918457 C-16.99932529 31.88870996 -16.99932529 31.88870996 -19 30 C-18.67111495 26.18008756 -17.39521509 23.68110289 -15.234375 20.56640625 C-14.67363281 19.75236328 -14.11289063 18.93832031 -13.53515625 18.09960938 C-12.94605469 17.26236328 -12.35695312 16.42511719 -11.75 15.5625 C-11.17636719 14.72912109 -10.60273438 13.89574219 -10.01171875 13.03710938 C-6.86520881 8.50369813 -3.61026589 4.17352166 0 0 Z " fill="#3E1D1B" transform="translate(235,410)"/>
<path d="M0 0 C5.49594129 4.99257471 9.21694631 11.05439712 13.27148438 17.2265625 C13.82255859 18.0515625 14.37363281 18.8765625 14.94140625 19.7265625 C15.67919312 20.84925537 15.67919312 20.84925537 16.43188477 21.99462891 C18.0856868 24.10957984 19.84753189 25.4200388 22 27 C22.67955019 28.66145531 23.34327745 30.32939002 24 32 C25.82455658 34.8513827 27.82171051 37.57546536 29.8125 40.3125 C30.86286232 41.76534973 31.9110544 43.21977103 32.95703125 44.67578125 C33.65276245 45.6335144 33.65276245 45.6335144 34.36254883 46.6105957 C36.68565222 50.0005186 38.8219438 53.51511007 41 57 C20.87 57 0.74 57 -20 57 C-20 23.97386566 -20 23.97386566 -9.55664062 12.72216797 C-7.20529726 10.12079154 -5.26263978 7.30804558 -3.25 4.4375 C-2.1679574 2.95738888 -1.08520509 1.47779398 0 0 Z " fill="#3E1D1B" transform="translate(174,455)"/>
<path d="M0 0 C5.28 1.32 10.56 2.64 16 4 C13.86220948 18.75075462 5.9775305 29.40959907 -5.375 38.8125 C-18.32580105 48.32920649 -33.10817966 50.32031171 -48.75 48.4375 C-63.78716394 45.65427171 -75.6346001 36.28444386 -84.53515625 24.1796875 C-88.87951631 17.71527972 -90.80249396 11.68924928 -92 4 C-90.08487728 3.49411853 -88.16783078 2.99551609 -86.25 2.5 C-84.64898437 2.08234375 -84.64898437 2.08234375 -83.015625 1.65625 C-80 1 -80 1 -76 1 C-75.78085938 1.76183594 -75.56171875 2.52367187 -75.3359375 3.30859375 C-71.60714328 15.44991152 -65.96754416 23.97698303 -55.125 30.8125 C-43.20135124 35.34348653 -30.72440799 35.18938994 -19 30 C-7.69453243 22.69280755 -3.16863284 12.67453135 0 0 Z " fill="#FCFBFB" transform="translate(294,362)"/>
<path d="M0 0 C3.51973101 3.25901019 6.52760275 6.8860931 9 11 C9 11.66 9 12.32 9 13 C9.86882812 12.65066406 10.73765625 12.30132812 11.6328125 11.94140625 C12.78523438 11.48636719 13.93765625 11.03132813 15.125 10.5625 C16.26195312 10.11003906 17.39890625 9.65757812 18.5703125 9.19140625 C21.74206741 8.08960073 24.67942748 7.43904226 28 7 C28.29132813 7.82242187 28.58265625 8.64484375 28.8828125 9.4921875 C33.35097701 21.66020783 38.52794397 30.1479331 48 39 C49.32 40.32 50.64 41.64 52 43 C47.05 49.93 47.05 49.93 42 57 C37.5056514 52.5056514 33.98330195 48.12166252 30.3125 43 C29.73177734 42.2059375 29.15105469 41.411875 28.55273438 40.59375 C27.99521484 39.8203125 27.43769531 39.046875 26.86328125 38.25 C26.36094971 37.55390625 25.85861816 36.8578125 25.34106445 36.140625 C23.89968393 33.83987415 22.93481554 31.54398805 22 29 C21.34 29 20.68 29 20 29 C19.72905518 29.56984619 19.45811035 30.13969238 19.17895508 30.72680664 C17.03907763 34.85279524 14.30598211 38.60422819 11.6875 42.4375 C11.11837891 43.28376953 10.54925781 44.13003906 9.96289062 45.00195312 C6.94133995 49.43194189 3.96256766 53.37941754 0 57 C-3.18091134 52.70131048 -6.34390021 48.39033433 -9.48974609 44.06591797 C-10.90484921 42.13015939 -12.33607084 40.20733172 -13.76953125 38.28515625 C-14.59728742 37.14911692 -15.4241573 36.01243109 -16.25 34.875 C-16.99765625 33.86179687 -17.7453125 32.84859375 -18.515625 31.8046875 C-20 29 -20 29 -19.734375 26.1328125 C-19.49203125 25.42898438 -19.2496875 24.72515625 -19 24 C-18.38125 23.938125 -17.7625 23.87625 -17.125 23.8125 C-16.42375 23.544375 -15.7225 23.27625 -15 23 C-14.73960937 22.31550781 -14.47921875 21.63101562 -14.2109375 20.92578125 C-12.5612686 16.93996834 -10.08989606 13.80142579 -7.5 10.375 C-6.50995522 9.04982379 -5.5203549 7.72431538 -4.53125 6.3984375 C-4.09361328 5.81755371 -3.65597656 5.23666992 -3.20507812 4.63818359 C-2.09149134 3.12437335 -1.04243753 1.56365629 0 0 Z " fill="#3F1E1C" transform="translate(174,360)"/>
<path d="M0 0 C4.09385404 3.71626556 7.09332386 8.12409334 10.25 12.625 C11.08144531 13.78902344 11.08144531 13.78902344 11.9296875 14.9765625 C12.71472656 16.0903125 12.71472656 16.0903125 13.515625 17.2265625 C13.99290039 17.90283691 14.47017578 18.57911133 14.96191406 19.27587891 C16 21 16 21 16 23 C17.65 23.66 19.3 24.32 21 25 C20.64744097 30.97494771 17.96189011 34.24643623 14.375 38.75 C13.28263288 40.16051335 12.19148459 41.57197148 11.1015625 42.984375 C10.57079102 43.66693359 10.04001953 44.34949219 9.49316406 45.05273438 C6.51768766 48.93311367 3.75661837 52.96213647 1 57 C-3.72290513 52.68470019 -7.12824347 47.73002981 -10.6875 42.4375 C-11.26822266 41.58736328 -11.84894531 40.73722656 -12.44726562 39.86132812 C-14.85299049 36.31531749 -17.15685094 32.87647735 -19 29 C-19.66 29 -20.32 29 -21 29 C-21.27094482 29.73734375 -21.54188965 30.4746875 -21.82104492 31.234375 C-22.94704618 33.87577949 -24.18851756 35.92923685 -25.86328125 38.25 C-26.42080078 39.0234375 -26.97832031 39.796875 -27.55273438 40.59375 C-28.13345703 41.3878125 -28.71417969 42.181875 -29.3125 43 C-29.88162109 43.7940625 -30.45074219 44.588125 -31.03710938 45.40625 C-34.16445088 49.71487206 -37.17308735 53.17308735 -41 57 C-44.3 52.38 -47.6 47.76 -51 43 C-46 38 -46 38 -43.97265625 36.11328125 C-35.18218292 27.82614791 -30.9911545 18.26706446 -27 7 C-20.51292846 8.6813917 -14.2322365 10.53062327 -8 13 C-7.79375 12.34 -7.5875 11.68 -7.375 11 C-5.48847129 6.88393737 -2.79432021 3.5412297 0 0 Z " fill="#3F1E1C" transform="translate(337,360)"/>
<path d="M0 0 C4.5824908 4.2471866 8.08268565 9.03825178 11.6875 14.125 C12.26822266 14.93582031 12.84894531 15.74664062 13.44726562 16.58203125 C15.67373623 19.69651614 17.87617967 22.81426951 20 26 C23.29872237 24.90042588 23.63468205 24.47786778 25.453125 21.71875 C25.90453857 21.04521484 26.35595215 20.37167969 26.82104492 19.67773438 C27.2926001 18.95908203 27.76415527 18.24042969 28.25 17.5 C29.22832634 16.04022856 30.20878996 14.5818872 31.19140625 13.125 C31.66852051 12.41730469 32.14563477 11.70960938 32.63720703 10.98046875 C35.24945648 7.18423666 38.09231236 3.57258549 41 0 C45.40607377 4.08903156 48.72369399 8.62170012 52.125 13.5625 C53.16882107 15.06411483 54.21307793 16.56542684 55.2578125 18.06640625 C55.94061279 19.0555603 55.94061279 19.0555603 56.63720703 20.06469727 C57.31178955 21.02267212 57.31178955 21.02267212 58 22 C58.51030762 22.74113037 59.02061523 23.48226074 59.54638672 24.24584961 C60.0260791 24.82471924 60.50577148 25.40358887 61 26 C61.66 26 62.32 26 63 26 C64.43505016 24.30694144 64.43505016 24.30694144 65.86328125 22.08984375 C66.42080078 21.26419922 66.97832031 20.43855469 67.55273438 19.58789062 C68.13345703 18.71326172 68.71417969 17.83863281 69.3125 16.9375 C70.45378565 15.23785036 71.59570333 13.53862493 72.73828125 11.83984375 C73.28693848 11.02112793 73.8355957 10.20241211 74.40087891 9.35888672 C76.5443361 6.19704192 78.76156512 3.09517168 81 0 C84.51921882 1.17307294 84.95697004 1.99958776 86.9609375 5.0078125 C87.51523437 5.83023437 88.06953125 6.65265625 88.640625 7.5 C89.49914062 8.799375 89.49914062 8.799375 90.375 10.125 C91.50718582 11.81552404 92.63998907 13.50563475 93.7734375 15.1953125 C94.58699707 16.41589355 94.58699707 16.41589355 95.41699219 17.66113281 C96.87928497 19.82164559 98.3827428 21.94278288 99.9140625 24.0546875 C102 27 102 27 102 28 C62.07 28 22.14 28 -19 28 C-17.51902511 24.29756277 -16.64286328 22.23642844 -14.35546875 19.2578125 C-13.84306641 18.58363281 -13.33066406 17.90945313 -12.80273438 17.21484375 C-12.26970703 16.52519531 -11.73667969 15.83554687 -11.1875 15.125 C-10.13854924 13.75319542 -9.09036525 12.38080416 -8.04296875 11.0078125 C-7.53556152 10.34426758 -7.0281543 9.68072266 -6.50537109 8.99707031 C-4.27629255 6.03990805 -2.13627067 3.02473813 0 0 Z " fill="#DD0315" transform="translate(235,484)"/>
<path d="M0 0 C4.72367409 4.30792 8.08832571 9.26152587 11.625 14.5625 C12.7622941 16.25179157 13.90029052 17.94061058 15.0390625 19.62890625 C15.53615723 20.37213135 16.03325195 21.11535645 16.54541016 21.88110352 C17.94851895 24.02396568 17.94851895 24.02396568 19.66674805 25.85229492 C21.54567947 28.87902258 21.33954457 31.19461247 21.29296875 34.734375 C21.2784668 36.67763672 21.2784668 36.67763672 21.26367188 38.66015625 C21.23860783 40.02344354 21.21321302 41.38672479 21.1875 42.75 C21.17244518 44.12889184 21.15875817 45.50779935 21.14648438 46.88671875 C21.11111909 50.25820915 21.06175904 53.62890654 21 57 C14.06773963 58.15029707 6.81726765 59.09114787 0 57 C-5.30467312 53.04294262 -8.49944076 47.13374782 -11.62060547 41.41064453 C-13.49558019 38.13391881 -15.71716648 35.13879421 -17.98071289 32.12084961 C-19.34311517 29.2860739 -18.98626521 27.95129551 -18 25 C-16.77246094 22.89111328 -16.77246094 22.89111328 -15.234375 20.8203125 C-14.67363281 20.05589844 -14.11289062 19.29148437 -13.53515625 18.50390625 C-12.94605469 17.71886719 -12.35695313 16.93382812 -11.75 16.125 C-10.59887725 14.565164 -9.44783448 13.00526897 -8.296875 11.4453125 C-7.74193359 10.69926758 -7.18699219 9.95322266 -6.61523438 9.18457031 C-4.37149125 6.14995522 -2.18346745 3.07819659 0 0 Z " fill="#3E1D1B" transform="translate(337,455)"/>
<path d="M0 0 C3.28462617 1.09487539 3.6304348 1.50949231 5.453125 4.24609375 C5.90469971 4.91406982 6.35627441 5.5820459 6.8215332 6.27026367 C7.29292725 6.98545166 7.76432129 7.70063965 8.25 8.4375 C9.22692595 9.90166838 10.2047907 11.36521081 11.18359375 12.828125 C11.66038574 13.54291016 12.13717773 14.25769531 12.62841797 14.99414062 C14.95645927 18.39876635 17.49375999 21.6516559 20.05078125 24.88671875 C21 27 21 27 20.24047852 29.36865234 C19.04969932 31.89457602 17.75599738 33.97163548 16.1015625 36.21484375 C15.53953125 36.98376953 14.9775 37.75269531 14.3984375 38.54492188 C13.81320313 39.33447266 13.22796875 40.12402344 12.625 40.9375 C11.4703567 42.5083819 10.31668939 44.07998172 9.1640625 45.65234375 C8.62040039 46.39339355 8.07673828 47.13444336 7.51660156 47.89794922 C5.60133195 50.5525647 3.78705841 53.25778968 2 56 C-1.28462617 54.90512461 -1.6304348 54.49050769 -3.453125 51.75390625 C-3.90461914 51.08584961 -4.35611328 50.41779297 -4.82128906 49.72949219 C-5.29276367 49.01438477 -5.76423828 48.29927734 -6.25 47.5625 C-7.22841614 46.09975811 -8.20758291 44.63751804 -9.1875 43.17578125 C-9.90292969 42.10384521 -9.90292969 42.10384521 -10.6328125 41.01025391 C-12.95608244 37.59421735 -15.44912835 34.30068483 -17.953125 31.015625 C-19 29 -19 29 -18.73828125 27.12915039 C-17.89303352 24.6915163 -16.76465146 22.99404381 -15.234375 20.91796875 C-14.67363281 20.15033203 -14.11289063 19.38269531 -13.53515625 18.59179688 C-12.65150391 17.40166992 -12.65150391 17.40166992 -11.75 16.1875 C-10.59884808 14.61857047 -9.44780492 13.04956114 -8.296875 11.48046875 C-7.46446289 10.3519751 -7.46446289 10.3519751 -6.61523438 9.20068359 C-4.37980552 6.15501314 -2.18771754 3.08007602 0 0 Z " fill="#3E1D1B" transform="translate(194,410)"/>
<path d="M0 0 C3.36906132 1.12302044 3.77757597 1.71491673 5.70703125 4.53515625 C6.21169922 5.26283203 6.71636719 5.99050781 7.23632812 6.74023438 C7.75646484 7.50658203 8.27660156 8.27292969 8.8125 9.0625 C9.83862811 10.55422236 10.86596966 12.04511076 11.89453125 13.53515625 C12.39936035 14.27652832 12.90418945 15.01790039 13.42431641 15.78173828 C15.01282625 18.01805691 16.7193012 20.11831016 18.44921875 22.24609375 C20.97154274 25.62834825 20.97154274 25.62834825 21.1953125 28.55078125 C19.47259328 32.08066671 17.2680907 35.08315259 14.875 38.1875 C13.87262713 39.51481703 12.87132703 40.84294488 11.87109375 42.171875 C11.38108887 42.81962891 10.89108398 43.46738281 10.38623047 44.13476562 C7.91888858 47.45468321 5.62991994 50.89633066 3.33984375 54.33984375 C2.89769531 54.88769531 2.45554687 55.43554688 2 56 C1.34 56 0.68 56 0 56 C-1.32519531 54.3828125 -1.32519531 54.3828125 -2.828125 52.125 C-3.38113281 51.30386719 -3.93414062 50.48273438 -4.50390625 49.63671875 C-5.08011719 48.76660156 -5.65632813 47.89648438 -6.25 47 C-7.37840036 45.3112905 -8.50859581 43.62377905 -9.640625 41.9375 C-10.19169922 41.10734375 -10.74277344 40.2771875 -11.31054688 39.421875 C-13.40258902 36.42287817 -15.71510584 33.63956849 -18.12011719 30.88671875 C-19 29 -19 29 -18.33447266 26.53295898 C-17.06289822 24.11938694 -15.71964956 21.97908139 -14.1015625 19.78515625 C-13.53953125 19.01623047 -12.9775 18.24730469 -12.3984375 17.45507812 C-11.81320312 16.66552734 -11.22796875 15.87597656 -10.625 15.0625 C-9.4703567 13.4916181 -8.31668939 11.92001828 -7.1640625 10.34765625 C-6.62040039 9.60660645 -6.07673828 8.86555664 -5.51660156 8.10205078 C-3.60133195 5.4474353 -1.78705841 2.74221032 0 0 Z " fill="#3E1D1B" transform="translate(316,410)"/>
<path d="M0 0 C3.36906132 1.12302044 3.77757597 1.71491673 5.70703125 4.53515625 C6.21169922 5.26283203 6.71636719 5.99050781 7.23632812 6.74023438 C7.75646484 7.50658203 8.27660156 8.27292969 8.8125 9.0625 C9.83862811 10.55422236 10.86596966 12.04511076 11.89453125 13.53515625 C12.39936035 14.27523926 12.90418945 15.01532227 13.42431641 15.77783203 C15.48507409 18.68409426 17.72288494 21.43660507 20.00268555 24.17358398 C21 26 21 26 20.73486328 28.12792969 C19.81996073 30.45865154 19.00422867 31.48482059 17 33 C6.09698813 36.92508427 -4.11848499 37.16606575 -15 33 C-17.421875 31.140625 -17.421875 31.140625 -19 29 C-18.59780936 25.69352891 -17.18428587 23.56334782 -15.234375 20.91796875 C-14.67363281 20.15033203 -14.11289063 19.38269531 -13.53515625 18.59179688 C-12.65150391 17.40166992 -12.65150391 17.40166992 -11.75 16.1875 C-10.59884808 14.61857047 -9.44780492 13.04956114 -8.296875 11.48046875 C-7.46446289 10.3519751 -7.46446289 10.3519751 -6.61523438 9.20068359 C-4.37980552 6.15501314 -2.18771754 3.08007602 0 0 Z " fill="#3E201E" transform="translate(255,361)"/>
<path d="M0 0 C0.33 0 0.66 0 1 0 C1 18.48 1 36.96 1 56 C-1.92514897 53.07485103 -4.07796476 50.66611993 -6.3828125 47.33984375 C-7.29740234 46.0259668 -7.29740234 46.0259668 -8.23046875 44.68554688 C-8.85566406 43.77869141 -9.48085938 42.87183594 -10.125 41.9375 C-10.75792969 41.02677734 -11.39085937 40.11605469 -12.04296875 39.17773438 C-19.01416116 29.13536908 -19.01416116 29.13536908 -18.79785156 27.06762695 C-17.88739066 24.70817365 -16.73515664 22.95402917 -15.234375 20.91796875 C-14.67363281 20.15033203 -14.11289062 19.38269531 -13.53515625 18.59179688 C-12.65150391 17.40166992 -12.65150391 17.40166992 -11.75 16.1875 C-10.59884808 14.61857047 -9.44780492 13.04956114 -8.296875 11.48046875 C-7.74064453 10.72813965 -7.18441406 9.97581055 -6.61132812 9.20068359 C-5.09323215 7.12733252 -3.61380584 5.03115804 -2.140625 2.92578125 C-1.43421875 1.96027344 -0.7278125 0.99476563 0 0 Z " fill="#401D1C" transform="translate(357,410)"/>
<path d="M0 0 C3.35166981 3.35166981 5.73669588 5.79412636 8.26171875 9.57421875 C8.82310547 10.40630859 9.38449219 11.23839844 9.96289062 12.09570312 C10.53201172 12.95099609 11.10113281 13.80628906 11.6875 14.6875 C12.83535588 16.40100295 13.98501197 18.11330174 15.13671875 19.82421875 C15.63905029 20.57791748 16.14138184 21.33161621 16.65893555 22.1081543 C17.99932529 24.11129004 17.99932529 24.11129004 20 26 C19.87340662 31.03660817 16.81757406 34.36972616 13.875 38.1875 C12.87403361 39.51489681 11.87403558 40.84302439 10.875 42.171875 C10.38515625 42.81962891 9.8953125 43.46738281 9.390625 44.13476562 C6.90681472 47.46628082 4.57769304 50.90363345 2.2421875 54.33984375 C1.62730469 55.16162109 1.62730469 55.16162109 1 56 C0.67 56 0.34 56 0 56 C0 37.52 0 19.04 0 0 Z " fill="#401D1C" transform="translate(154,410)"/>
<path d="M0 0 C0.66 0 1.32 0 2 0 C3.43286133 1.70898438 3.43286133 1.70898438 5.08203125 4.09375 C5.68466797 4.96 6.28730469 5.82625 6.90820312 6.71875 C7.53662109 7.6365625 8.16503906 8.554375 8.8125 9.5 C9.42931641 10.386875 10.04613281 11.27375 10.68164062 12.1875 C14.27736442 17.38429528 17.6438381 22.63014095 21 28 C7.8 28 -5.4 28 -19 28 C-14.50133717 20.12734005 -14.50133717 20.12734005 -11.8359375 16.484375 C-11.27132812 15.70835937 -10.70671875 14.93234375 -10.125 14.1328125 C-9.25875 12.95332031 -9.25875 12.95332031 -8.375 11.75 C-7.21573607 10.16175734 -6.05686521 8.57322768 -4.8984375 6.984375 C-4.38974121 6.29053711 -3.88104492 5.59669922 -3.35693359 4.88183594 C-2.20187493 3.27996617 -1.0954658 1.64319869 0 0 Z " fill="#DD0315" transform="translate(194,484)"/>
<path d="M0 0 C3.25516428 3.16474305 6.32008793 6.32752791 9 10 C9 10.66 9 11.32 9 12 C9.66 12.33 10.32 12.66 11 13 C10.34 13 9.68 13 9 13 C8.72905518 13.73734375 8.45811035 14.4746875 8.17895508 15.234375 C7.05295382 17.87577949 5.81148244 19.92923685 4.13671875 22.25 C3.57919922 23.0234375 3.02167969 23.796875 2.44726562 24.59375 C1.86654297 25.3878125 1.28582031 26.181875 0.6875 27 C0.11837891 27.7940625 -0.45074219 28.588125 -1.03710938 29.40625 C-4.16445088 33.71487206 -7.17308735 37.17308735 -11 41 C-14.3 36.38 -17.6 31.76 -21 27 C-16 22 -16 22 -13.97265625 20.11328125 C-7.7463054 14.24344947 -3.74776706 7.63563756 0 0 Z " fill="#401F1D" transform="translate(307,376)"/>
<path d="M0 0 C2.17455992 2.77860434 3.92477073 5.60024159 5.625 8.6875 C8.96325485 14.33749633 13.23500529 18.54689585 18 23 C19.32 24.32 20.64 25.64 22 27 C18.7 31.62 15.4 36.24 12 41 C8.7896708 37.7896708 6.28789715 35.25329283 3.73828125 31.6796875 C3.17689453 30.89722656 2.61550781 30.11476563 2.03710938 29.30859375 C1.46798828 28.50550781 0.89886719 27.70242188 0.3125 26.875 C-0.26822266 26.06417969 -0.84894531 25.25335938 -1.44726562 24.41796875 C-8.62143666 14.38242314 -8.62143666 14.38242314 -8 10 C-6.25 7.32421875 -6.25 7.32421875 -4 4.6875 C-2.88625 3.36298828 -2.88625 3.36298828 -1.75 2.01171875 C-1.1725 1.34785156 -0.595 0.68398438 0 0 Z " fill="#401F1D" transform="translate(204,376)"/>
<path d="M0 0 C1.63592968 0.61367662 3.27396034 1.22178218 4.9140625 1.82421875 C6.48596141 2.4412865 8.05629161 3.06236579 9.625 3.6875 C10.43839844 4.00783203 11.25179687 4.32816406 12.08984375 4.65820312 C14.06132051 5.43519691 16.03087373 6.21706853 18 7 C18 8.32 18 9.64 18 11 C10.89832685 10.52151848 3.97550526 9.7551472 -3.015625 8.40234375 C-10.01844704 7.45824601 -16.36577676 8.2264187 -23.25 9.5 C-24.81716873 9.78424139 -26.38486445 10.06559568 -27.953125 10.34375 C-28.63536133 10.46943359 -29.31759766 10.59511719 -30.02050781 10.72460938 C-32 11 -32 11 -36 11 C-36 9.68 -36 8.36 -36 7 C-31.89481293 5.22090567 -27.76395095 3.51138979 -23.625 1.8125 C-22.46871094 1.31041016 -21.31242188 0.80832031 -20.12109375 0.29101562 C-12.23479728 -2.89469171 -7.74356514 -3.51680894 0 0 Z " fill="#2F2B27" transform="translate(265,289)"/>
<path d="M0 0 C0.33 0 0.66 0 1 0 C1 9.24 1 18.48 1 28 C-5.6 28 -12.2 28 -19 28 C-14.49880126 20.12290221 -14.49880126 20.12290221 -12.08984375 16.73828125 C-11.57486328 16.01189453 -11.05988281 15.28550781 -10.52929688 14.53710938 C-10.00400391 13.80298828 -9.47871094 13.06886719 -8.9375 12.3125 C-8.40833984 11.56677734 -7.87917969 10.82105469 -7.33398438 10.05273438 C-5.89597804 8.03014328 -4.45568162 6.00990784 -3 4 C-2.46834229 3.26031982 -1.93668457 2.52063965 -1.38891602 1.75854492 C-0.93057373 1.1782251 -0.47223145 0.59790527 0 0 Z " fill="#DE0617" transform="translate(357,484)"/>
<path d="M0 0 C2.69312033 2.69312033 4.74348206 4.84250185 6.875 7.86328125 C7.64070312 8.94706055 7.64070312 8.94706055 8.421875 10.05273438 C8.94265625 10.79845703 9.4634375 11.54417969 10 12.3125 C10.52078125 13.04662109 11.0415625 13.78074219 11.578125 14.53710938 C14.67474143 18.94353199 17.30298559 23.28022479 20 28 C13.4 28 6.8 28 0 28 C0 18.76 0 9.52 0 0 Z " fill="#DE0617" transform="translate(154,484)"/>
<path d="M0 0 C1.61449886 3.53171626 2.45100341 6.12137068 2 10 C0.25 12.89453125 0.25 12.89453125 -2 15.8125 C-2.7425 16.78832031 -3.485 17.76414062 -4.25 18.76953125 C-4.8275 19.50558594 -5.405 20.24164063 -6 21 C-10.0744433 19.64185223 -11.42021951 16.8691574 -13.6875 13.4375 C-14.10322266 12.82197266 -14.51894531 12.20644531 -14.94726562 11.57226562 C-15.97193162 10.05293329 -16.98690678 8.52707343 -18 7 C-15.36865941 3.70846643 -12.40308219 2.96894352 -8.4375 1.8125 C-7.28121094 1.46832031 -6.12492188 1.12414062 -4.93359375 0.76953125 C-2 0 -2 0 0 0 Z " fill="#DD0618" transform="translate(202,367)"/>
<path d="M0 0 C6.23440168 1.58960332 12.16287645 3.27600901 18 6 C15.13517038 11.28891623 12.06436802 16.52919518 8 21 C7.34 21 6.68 21 6 21 C2.46039385 17.20207939 -1.6099617 12.83458066 -2.3359375 7.55859375 C-1.98409767 4.82932193 -1.22961402 2.45922803 0 0 Z " fill="#DD0516" transform="translate(310,367)"/>
<path d="M0 0 C1.09142742 2.74490727 1.03727116 3.8908376 0.06640625 6.734375 C-3.32045025 13.52568206 -6.89726777 19.32673658 -13 24 C-13.66 24 -14.32 24 -15 24 C-14.36791079 20.588948 -13.06208716 18.32684002 -11.09375 15.48828125 C-10.22556641 14.22854492 -10.22556641 14.22854492 -9.33984375 12.94335938 C-8.73269531 12.07517578 -8.12554687 11.20699219 -7.5 10.3125 C-6.89285156 9.43271484 -6.28570312 8.55292969 -5.66015625 7.64648438 C-1.1896734 1.1896734 -1.1896734 1.1896734 0 0 Z " fill="#482B27" transform="translate(292,366)"/>
<path d="M0 0 C4.09385404 3.71626556 7.09332386 8.12409334 10.25 12.625 C10.80429688 13.40101563 11.35859375 14.17703125 11.9296875 14.9765625 C12.45304688 15.7190625 12.97640625 16.4615625 13.515625 17.2265625 C13.99290039 17.90283691 14.47017578 18.57911133 14.96191406 19.27587891 C16 21 16 21 16 23 C11.10034209 22.30004887 8.98740147 19.15503865 5.90625 15.55078125 C2.24756451 10.65504022 0 6.14152831 0 0 Z " fill="#482A27" transform="translate(219,366)"/>
<path d="M0 0 C2.64 0 5.28 0 8 0 C7.01 1.98 6.02 3.96 5 6 C4.34 6 3.68 6 3 6 C2.01 4.02 1.02 2.04 0 0 Z " fill="#461C1B" transform="translate(252,411)"/>
</svg>
